<svg width="22" height="22" viewBox="0 0 22 22" fill="none" xmlns="http://www.w3.org/2000/svg">
<path fill-rule="evenodd" clip-rule="evenodd" d="M8.20274 21.0001C4.3184 21.0001 1 20.413 1 18.0604C1 15.7078 4.29724 13.5879 8.20274 13.5879C12.0871 13.5879 15.4044 15.6877 15.4044 18.0392C15.4044 20.3908 12.1082 21.0001 8.20274 21.0001Z" stroke="black" stroke-width="1.5" stroke-linecap="round" stroke-linejoin="round"/>
<path fill-rule="evenodd" clip-rule="evenodd" d="M8.20232 10.2327C10.7517 10.2327 12.8187 8.16571 12.8187 5.61635C12.8187 3.06699 10.7517 1 8.20232 1C5.65296 1 3.58597 3.06699 3.58597 5.61635C3.57645 8.15725 5.62969 10.2242 8.16953 10.2327H8.20232Z" stroke="black" stroke-width="1.5" stroke-linecap="round" stroke-linejoin="round"/>
<path d="M15.8638 8.96467C17.348 8.56798 18.4418 7.21502 18.4418 5.60501C18.4428 3.92518 17.2506 2.52251 15.666 2.19775" stroke="black" stroke-width="1.5" stroke-linecap="round" stroke-linejoin="round"/>
<path d="M16.5615 12.7461C18.6645 12.7461 20.4607 14.172 20.4607 15.4446C20.4607 16.1946 19.8418 16.9647 18.9004 17.1858" stroke="black" stroke-width="1.5" stroke-linecap="round" stroke-linejoin="round"/>
</svg>
