<svg width="1143" height="1028" viewBox="0 0 1143 1028" fill="none" xmlns="http://www.w3.org/2000/svg">
<path fill-rule="evenodd" clip-rule="evenodd" d="M875.276 440.741C816.705 461.883 786.362 526.503 807.504 585.075C828.646 643.646 893.266 673.989 951.838 652.847C1010.41 631.705 1040.75 567.085 1019.61 508.513C998.468 449.942 933.848 419.599 875.276 440.741ZM899.498 506.843C874.54 515.852 861.61 543.388 870.619 568.346C879.628 593.304 907.163 606.234 932.122 597.225C957.08 588.216 970.01 560.68 961.001 535.722C951.992 510.764 924.456 497.834 899.498 506.843Z" fill="#086B99"/>
<path d="M980.5 650.677C981.417 657.663 977.348 664.345 970.72 666.738L947.718 675.041C940.957 677.481 933.415 674.782 929.737 668.606L925.196 660.979C920.374 652.881 924.127 642.395 932.992 639.196L959.374 629.673C968.384 626.421 978.092 632.332 979.339 641.83L980.5 650.677Z" fill="#086B99"/>
<path d="M885.477 666.777C881.003 672.221 873.343 673.817 867.068 670.613L845.287 659.494C838.885 656.225 835.701 648.874 837.697 641.969L840.162 633.441C842.779 624.388 852.999 619.962 861.392 624.247L886.373 637C894.905 641.355 897.224 652.483 891.142 659.883L885.477 666.777Z" fill="#086B99"/>
<path d="M790.417 564.461C784.456 568.217 781.913 575.616 784.305 582.244L792.608 605.246C795.048 612.008 801.943 616.087 809.044 614.972L817.813 613.595C827.123 612.133 832.794 602.548 829.595 593.684L820.072 567.302C816.82 558.292 806.07 554.597 797.966 559.704L790.417 564.461Z" fill="#086B99"/>
<path d="M1016.81 480.835C1023.8 479.918 1030.48 483.988 1032.87 490.615L1041.18 513.617C1043.62 520.379 1040.92 527.921 1034.74 531.599L1027.11 536.14C1019.02 540.961 1008.53 537.209 1005.33 528.344L995.809 501.962C992.557 492.952 998.468 483.243 1007.97 481.997L1016.81 480.835Z" fill="#086B99"/>
<path d="M1012.87 617.018C1019.79 618.35 1026.7 614.685 1029.49 608.212L1039.14 585.745C1041.98 579.141 1039.74 571.451 1033.79 567.413L1026.45 562.425C1018.65 557.13 1007.96 560.252 1004.24 568.91L993.163 594.679C989.38 603.479 994.703 613.522 1004.11 615.332L1012.87 617.018Z" fill="#086B99"/>
<path d="M790.226 526.743C784.494 522.645 782.388 515.11 785.163 508.633L794.796 486.155C797.627 479.548 804.748 475.878 811.772 477.406L820.445 479.293C829.654 481.297 834.756 491.196 831.044 499.859L819.996 525.64C816.223 534.444 805.276 537.504 797.484 531.933L790.226 526.743Z" fill="#086B99"/>
<path d="M848.154 441.32C847.229 434.335 851.291 427.648 857.916 425.248L880.909 416.92C887.667 414.472 895.213 417.162 898.897 423.335L903.446 430.957C908.277 439.049 904.536 449.539 895.675 452.748L869.304 462.3C860.297 465.563 850.582 459.662 849.325 450.166L848.154 441.32Z" fill="#086B99"/>
<path d="M996.68 452.222C998.472 445.408 995.281 438.265 989.009 435.054L967.24 423.91C960.842 420.635 953.019 422.359 948.59 428.021L943.121 435.013C937.315 442.436 939.712 453.312 948.101 457.606L973.068 470.387C981.595 474.752 991.972 470.115 994.41 460.851L996.68 452.222Z" fill="#086B99"/>
<path d="M897.548 423.491C893.798 417.526 886.401 414.974 879.771 417.359L856.76 425.636C849.995 428.069 845.908 434.959 847.016 442.062L848.383 450.832C849.835 460.144 859.413 465.826 868.281 462.636L894.674 453.143C903.687 449.901 907.394 439.155 902.296 431.045L897.548 423.491Z" fill="#086B99"/>
<circle cx="915.837" cy="552.109" r="74.0538" transform="rotate(160.153 915.837 552.109)" stroke="white" stroke-width="2"/>
<path d="M830.055 610.152C795.617 565.89 803.581 502.091 847.842 467.653C892.103 433.215 955.902 441.178 990.34 485.44" stroke="white" stroke-width="3"/>
<path d="M1009 561.763C1011.48 603.642 979.545 639.602 937.666 642.083" stroke="white" stroke-width="2"/>
<path fill-rule="evenodd" clip-rule="evenodd" d="M861.097 437.108C945.343 437.108 1013.64 368.813 1013.64 284.567C1013.64 200.321 945.343 132.026 861.097 132.026C776.851 132.026 708.556 200.321 708.556 284.567C708.556 368.813 776.851 437.108 861.097 437.108ZM860.637 341.864C896.536 341.864 925.637 312.763 925.637 276.864C925.637 240.966 896.536 211.864 860.637 211.864C824.739 211.864 795.637 240.966 795.637 276.864C795.637 312.763 824.739 341.864 860.637 341.864Z" fill="#0E8AC3"/>
<path d="M823.134 111.651C824.643 104.768 830.739 99.8641 837.786 99.8641H879.499C886.687 99.8641 892.865 104.964 894.227 112.022L898.546 134.4C900.332 143.654 893.242 152.243 883.817 152.243H832.878C823.299 152.243 816.174 143.386 818.226 134.029L823.134 111.651Z" fill="#0E8AC3"/>
<path d="M962.977 140.148C969.033 136.546 976.78 137.645 981.595 142.79L1010.1 173.243C1015.01 178.491 1015.51 186.486 1011.29 192.304L997.903 210.75C992.368 218.377 981.252 219.071 974.812 212.19L940.001 175.001C933.455 168.007 935.052 156.754 943.286 151.858L962.977 140.148Z" fill="#0E8AC3"/>
<path d="M894.352 111.651C892.843 104.768 886.746 99.8641 879.7 99.8641H837.987C830.798 99.8641 824.621 104.964 823.259 112.022L818.94 134.4C817.154 143.654 824.244 152.243 833.668 152.243H884.608C894.187 152.243 901.311 143.386 899.259 134.029L894.352 111.651Z" fill="#0E8AC3"/>
<path d="M1033.09 319.314C1039.98 317.805 1044.88 311.709 1044.88 304.662L1044.88 262.949C1044.88 255.761 1039.78 249.583 1032.72 248.221L1010.35 243.902C1001.09 242.116 992.503 249.206 992.503 258.63L992.503 309.57C992.503 319.149 1001.36 326.274 1010.72 324.222L1033.09 319.314Z" fill="#0E8AC3"/>
<path d="M685.424 319.314C678.541 317.805 673.637 311.709 673.637 304.662L673.637 262.949C673.637 255.761 678.737 249.583 685.795 248.221L708.173 243.902C717.427 242.116 726.016 249.206 726.016 258.63L726.016 309.57C726.016 319.149 717.159 326.274 707.803 324.222L685.424 319.314Z" fill="#0E8AC3"/>
<path d="M754.508 140.148C748.452 136.546 740.706 137.645 735.891 142.79L707.385 173.243C702.473 178.491 701.974 186.486 706.196 192.304L719.582 210.75C725.118 218.377 736.233 219.071 742.673 212.19L777.484 175.001C784.03 168.007 782.433 156.754 774.2 151.858L754.508 140.148Z" fill="#0E8AC3"/>
<path d="M1011.25 370.239C1015.25 376.039 1014.67 383.842 1009.86 388.992L981.39 419.477C976.483 424.73 968.54 425.765 962.452 421.942L943.149 409.824C935.167 404.813 933.73 393.769 940.162 386.882L974.932 349.654C981.47 342.653 992.805 343.491 998.243 351.377L1011.25 370.239Z" fill="#0E8AC3"/>
<path d="M894.97 452.989C893.469 459.874 887.378 464.785 880.332 464.793L838.618 464.839C831.43 464.847 825.247 459.754 823.877 452.698L819.533 430.324C817.737 421.072 824.817 412.476 834.241 412.465L885.181 412.409C894.76 412.398 901.894 421.247 899.853 430.606L894.97 452.989Z" fill="#0E8AC3"/>
<path d="M709.463 370.239C705.463 376.039 706.04 383.842 710.849 388.992L739.321 419.477C744.227 424.73 752.171 425.765 758.259 421.942L777.562 409.824C785.543 404.813 786.981 393.769 780.548 386.882L745.779 349.654C739.241 342.653 727.905 343.491 722.468 351.377L709.463 370.239Z" fill="#0E8AC3"/>
<path d="M825.74 452.989C827.242 459.874 833.333 464.785 840.379 464.793L882.092 464.839C889.281 464.847 895.464 459.754 896.834 452.698L901.178 430.324C902.974 421.072 895.894 412.476 886.469 412.465L835.53 412.409C825.951 412.398 818.816 421.247 820.858 430.606L825.74 452.989Z" fill="#0E8AC3"/>
<circle cx="860.638" cy="276.756" r="100.541" stroke="white" stroke-width="2"/>
<path d="M996.459 242.297C1019.95 314.44 980.513 391.969 908.37 415.462C836.227 438.955 758.698 399.517 735.205 327.374" stroke="white" stroke-width="3"/>
<path d="M746.514 221.677C762.593 167.245 819.754 136.154 874.186 152.234" stroke="white" stroke-width="2"/>
<path d="M458.747 266.563C486.311 351.437 348.208 402.903 410.192 474.353L312.063 492.87C314.683 466.207 324.907 433.961 299.859 428.194C-30.9264 352.036 371.104 -3.29192 458.747 266.563Z" fill="#F5B64B"/>
<path d="M362.059 561.962L349.771 545.804L401.066 536.124L397.742 555.229L362.059 561.962Z" fill="#D1E9F0"/>
<path d="M342.985 489.344C332.735 432.607 313.194 326.409 306.539 291.144C299.883 255.878 200.545 296.427 299.418 312.152C398.291 327.877 415.056 266.393 388.242 256.734C361.428 247.075 325.56 253.843 348.272 356.31L375.592 483.191" stroke="#FDDD87" stroke-width="8"/>
<path d="M410.196 474.351L312.067 492.869C317.729 539.002 324.233 552.933 371.374 544.037C429.739 533.023 425.774 519.522 410.196 474.351Z" fill="#A8DBEA"/>
<path d="M31.5596 254.768L117.876 285.096" stroke="#FDDD87" stroke-width="8" stroke-linecap="round" stroke-linejoin="round"/>
<path d="M267.178 37.1057L285.717 126.697" stroke="#FDDD87" stroke-width="8" stroke-linecap="round" stroke-linejoin="round"/>
<path d="M463.379 46.2746L424.076 128.891" stroke="#FDDD87" stroke-width="8" stroke-linecap="round" stroke-linejoin="round"/>
<path d="M84.6647 120.048L150.611 183.463" stroke="#FDDD87" stroke-width="8" stroke-linecap="round" stroke-linejoin="round"/>
<path d="M889.228 615.864V288.864H397.728C375.359 448.344 377.722 523.748 405.728 635.864C597.57 645.713 703.403 641.156 889.228 615.864Z" fill="#D1E9F0"/>
<path d="M396.228 279.864H891.728" stroke="#4C5575" stroke-width="18" stroke-linecap="round"/>
<path d="M746.637 389.864H656.637V531.864H746.637V389.864Z" fill="#FBD3D4"/>
<path d="M847.637 313.864H757.637V531.864H847.637V313.864Z" fill="#FBDEC7"/>
<path d="M640.637 478.864H550.637V531.864H640.637V478.864Z" fill="#FBDEC7"/>
<path d="M534.637 514.864H444.637V531.864H534.637V514.864Z" fill="#FBD3D4"/>
<path d="M656.228 435.864L567.728 530.364L580.137 536.364L659.728 454.864L694.728 476.364L786.228 364.864L799.228 372.864L806.728 320.364L763.228 346.864L773.728 354.364L689.728 457.364L656.228 435.864Z" fill="#A9C2C9"/>
<path d="M656.228 430.864L561.637 534.364L580.637 536.364L659.228 449.864L693.728 471.364L786.728 361.864L797.728 368.864L805.228 319.864L762.728 346.864L774.228 354.364L689.728 452.364L656.228 430.864Z" fill="#BBD4DC"/>
<path d="M413.137 327.864V589.864H860.137" stroke="#BBD4DC" stroke-width="7"/>
<path d="M573.186 270.86C534.249 293.098 494.81 230.417 465.995 268.216L446.853 221.832C460.238 220.395 477.148 222.128 477.424 209.216C481.073 38.6921 696.988 200.153 573.186 270.86Z" fill="#FDDD87"/>
<path d="M417.973 253.493L424.666 245.795L434.672 270.041L424.934 270.359L417.973 253.493Z" fill="#D1E9F0"/>
<path d="M451.749 236.685C478.614 225.841 528.863 205.37 545.532 198.491C562.202 191.611 532.096 146.885 534.469 197.135C536.841 247.386 568.803 249.348 570.814 235.168C572.825 220.989 565.828 204.035 517.739 225.685L458.11 252.097" stroke="white" stroke-width="5"/>
<path d="M465.996 268.218L446.854 221.834C424.736 229.336 418.548 233.96 427.744 256.242C439.129 283.831 445.366 280.5 465.996 268.218Z" fill="#A8DBEA"/>
<path d="M535.315 59.4893L529.219 105.055" stroke="#FDDD87" stroke-width="5" stroke-linecap="round" stroke-linejoin="round"/>
<path d="M666.488 153.154L624.307 171.434" stroke="#FDDD87" stroke-width="5" stroke-linecap="round" stroke-linejoin="round"/>
<path d="M682.036 250.617L637.373 239.728" stroke="#FDDD87" stroke-width="5" stroke-linecap="round" stroke-linejoin="round"/>
<path d="M607.023 71.8423L582.567 110.769" stroke="#FDDD87" stroke-width="5" stroke-linecap="round" stroke-linejoin="round"/>
<path d="M194.637 1027.23L175.926 839.864H171.637L190.349 1027.86L194.637 1027.23Z" fill="#086B99"/>
<path d="M81.6375 1027.23L100.349 839.864H104.637L85.9256 1027.86L81.6375 1027.23Z" fill="#086B99"/>
<path d="M82.1375 849.364V828.364C123.637 815.198 159.637 826.864 190.137 839.364V849.364H82.1375Z" fill="#0A78AC"/>
<path d="M83.6374 754.864L78.1375 755.864C61.3857 798.638 53.1374 843.864 82.1373 846.864V842.364C61.6374 838.364 63.1374 811.864 83.6374 754.864Z" fill="#3D637E"/>
<path d="M107.137 758.364C127.982 707.864 115.137 686.364 78.1375 705.864C82.0349 725.286 81.6268 736.244 78.1375 755.864C88.3612 754.523 94.892 755.453 107.137 758.364Z" fill="#086B99"/>
<path d="M306.137 997.864L301.637 985.864L316.137 984.364L321.137 997.364L306.137 997.864Z" fill="#F6C4A4"/>
<path d="M305.245 995.864H320.745C330.04 1001.82 341.245 1008.36 348.745 1008.86C356.245 1009.36 358.597 1010.55 358.745 1015.36H334.245C333.745 1015.36 313.745 1012.36 313.745 1012.36V1015.36H302.745C302.745 1010.86 301.846 999.266 305.245 995.864Z" fill="#4B5575"/>
<path d="M171.637 984.864L176.137 972.864L192.137 973.364L185.137 989.864L175.637 993.364L171.637 984.864Z" fill="#F6C4A4"/>
<path d="M185.138 989.864C178.614 991.134 175.695 989.562 171.638 984.864C165.836 987.298 163.416 990.12 160.637 997.864L170.138 1006.36C170.138 1006.36 172.638 1003.86 173.638 1003.36C174.637 1002.86 184.637 1015.86 184.637 1015.86H217.138C217.109 1013.81 216.38 1012.62 215.637 1012.36C199.637 1006.36 190.741 1003.83 185.138 989.864Z" fill="#4B5575"/>
<path d="M279.137 837.364C289.637 819.864 241.569 785.732 200.637 758.364L225.137 837.364C199.672 890.453 188.695 920.472 173.637 974.364H192.637C230.105 922.13 249.727 892.369 279.137 837.364Z" fill="#4C5575"/>
<path d="M184.637 590.364L185.137 582.364L163.637 554.364L160.137 586.864L184.637 590.364Z" fill="#F4B29D"/>
<path d="M200.137 758.364H92.1375C90.7761 782.175 98.0657 795.815 126.137 816.864C188.137 851.364 227.137 838.364 240.637 861.364C261.227 916.404 272.235 937.8 301.637 987.364H319.637C307.971 928.38 299.637 894.864 283.137 838.364C254.137 805.864 239.042 790.956 200.137 758.364Z" fill="#3D637E"/>
<path d="M175.137 571.364C170.637 568.864 165.231 563.721 163.137 556.864L161.637 534.364L179.137 522.364L199.637 526.364C201.423 540.905 201.112 548.13 199.637 560.364L175.137 571.364Z" fill="#F6C4A4"/>
<path d="M158.637 527.364C159.637 544.864 160.137 564.364 160.137 564.364L162.637 566.864C164.314 541.584 173.844 542.738 171.137 558.364L169.137 575.364C205.637 596.864 197.137 584.364 200.137 559.864C189.137 555.364 186.637 569.364 177.637 559.864L182.637 526.364C214.137 536.864 213.125 517.481 208.137 515.364C208.137 515.364 195.253 517.077 186.637 514.864C168.48 508.794 157.637 509.864 158.637 527.364Z" fill="#4C5575"/>
<path d="M217.137 683.364L198.137 645.364L196.637 691.364L203.637 703.864L314.137 692.364C325.426 699.424 328.603 699.724 332.637 698.364L318.137 683.364L303.637 680.864L217.137 683.364Z" fill="#F4B29D"/>
<path d="M200.637 758.364C209.066 689.242 203.706 652.769 184.637 589.864L160.137 585.864C116.137 599.864 93.5187 658.722 92.1375 758.364H200.637Z" fill="#0E8AC3"/>
<path d="M180.137 658.864L132.137 673.864C178.637 738.864 152.137 766.364 283.137 701.364H292.137C304.683 707.263 309.968 707.315 315.168 699.528C316.374 705.873 317.368 708.764 320.637 710.364C320.637 710.364 319.637 694.864 318.637 693.364C317.637 691.864 304.637 684.864 296.137 686.864C287.637 688.864 200.637 700.864 200.637 700.864L180.137 658.864Z" fill="#F6C4A4"/>
<path d="M428.638 440.864C435.638 447.364 444.449 466.675 452.637 483.864L431.637 487.864C431.64 486.565 430.637 483.364 430.137 483.364C429.637 483.364 427.893 483.29 419.638 488.864C406.449 475.639 403.165 466.619 404.138 447.864L428.638 440.864Z" fill="#F7C4A4"/>
<path d="M441.805 967.864L439.305 961.864L426.305 967.364L428.305 972.864L437.805 976.364L441.805 967.864Z" fill="#F6C4A4"/>
<path d="M428.305 972.864C434.828 974.134 437.748 972.562 441.805 967.864C447.606 970.298 450.026 973.12 452.805 980.864L443.305 989.364C443.305 989.364 440.804 986.864 439.805 986.364C438.805 985.864 428.805 998.864 428.805 998.864H396.305C396.333 996.81 397.062 995.619 397.805 995.364C413.805 989.364 422.701 986.833 428.305 972.864Z" fill="#4B5575"/>
<path d="M397.97 677.364L422.805 666.864L439.305 767.364C430.735 783.247 426.603 792.189 423.305 808.364C422.251 815.524 425.853 821.753 427.305 830.364C428.244 835.939 429.116 841.253 429.923 846.364C436.478 887.869 438.809 915.982 439.305 961.864L426.305 967.864C396.13 889.18 370.768 810.864 368.637 785.864C366.507 760.864 379.97 711.864 397.97 677.364Z" fill="#4C5575"/>
<path d="M486.805 982.864V971.864L473.305 971.364V975.364L472.805 982.364L486.805 982.864Z" fill="#F6C4A4"/>
<path d="M494.305 793.864C505.295 697.816 511.137 667.364 485.637 635.364L422.305 665.864L472.805 972.864H487.805C497.092 899.303 500.769 858.889 494.305 793.864Z" fill="#3D637E"/>
<path d="M487.805 979.864H472.305C463.01 985.819 451.805 992.364 444.305 992.864C436.805 993.364 434.453 994.55 434.305 999.364H458.805C459.305 999.364 479.305 996.364 479.305 996.364V999.364H490.305C490.305 994.864 491.205 983.266 487.805 979.864Z" fill="#4B5575"/>
<path d="M412.637 503.864C410.923 488.606 409.137 484.307 410.139 482.841C417.637 466.864 435.137 467.864 425.637 483.864" stroke="#F4B29D" stroke-width="4" stroke-linecap="round"/>
<path d="M386.637 568.364L378.637 563.864C371.934 593.622 374.137 625.364 385.637 632.364L386.637 568.364Z" fill="#F4B29D"/>
<path d="M386.198 652.864C385.689 648.515 390.583 649.375 398.198 654.864L388.198 654.864L386.198 652.864Z" fill="#F5B29D"/>
<path d="M460.198 491.364C434.198 494.364 434.198 491.364 430.198 494.864C426.198 498.364 390.515 527.822 375.698 561.864L386.698 568.364L396.698 633.364V679.864H503.198L504.198 638.864L477.198 579.364L518.198 573.864C513.198 544.364 486.198 488.365 460.198 491.364Z" fill="#0E8AC3"/>
<path d="M429.698 495.364L460.698 491.364L452.698 483.364L431.198 487.364L429.698 495.364Z" fill="#086B99"/>
<path d="M504.198 638.864C523.698 630.364 521.682 618.389 518.198 573.864L477.198 579.364L482.198 613.364C482.198 613.364 406.698 652.864 400.198 653.864C393.698 654.864 391.698 651.864 378.198 652.864C364.698 653.864 384.698 677.864 392.698 674.364C400.698 670.864 404.077 667.88 413.198 661.864C422.318 655.848 484.698 647.364 504.198 638.864Z" fill="#F7C5A5"/>
<path d="M410.698 504.864L423.198 505.364C420.648 576.421 413.198 637.864 388.698 634.864C366.698 626.864 381.895 575.092 410.698 504.864Z" fill="#F7C5A4"/>
<path d="M410.698 504.864L423.198 505.364C425.198 497.364 423.987 491.433 427.487 484.933C435.487 467.933 417.987 467.433 409.987 483.933C409.017 485.933 409.948 496.967 410.698 504.864Z" fill="#F7C5A5"/>
<path d="M430.637 421.364C450.73 412.191 451.637 440.364 442.137 462.864C441.149 463.3 429.599 440.823 428.137 441.364C419.947 444.399 391.451 458.2 387.638 436.864C383.137 411.69 410.545 430.538 430.637 421.364Z" fill="#4C5575"/>
<path d="M438.137 611.364L434.137 607.364L425.637 655.364L431.637 651.864L438.137 611.364Z" fill="#3C627E"/>
<path d="M417.137 686.364L439.137 546.864L435.137 549.364L412.637 683.364L417.137 686.364Z" fill="#D1E9F0"/>
<path d="M444.137 546.864H439.137L416.637 686.364C411.637 711.364 397.381 711.23 361.637 709.364V714.864C397.137 715.364 416.137 716.864 420.137 692.364L444.137 546.864Z" fill="#3C627E"/>
<path d="M343.637 710.864H294.637V715.364H343.637V710.864Z" fill="#3C627E"/>
<path d="M750.137 751.924V723.424L749.137 719.424L769.637 718.924L767.137 751.924H750.137Z" fill="#086B99"/>
<path d="M886.637 1008.29L859.79 820.924H853.637L880.485 1008.92L886.637 1008.29Z" fill="#086B99"/>
<path d="M725.637 1008.29L752.485 820.924H758.637L731.79 1008.92L725.637 1008.29Z" fill="#086B99"/>
<path d="M866.637 802.424C897.602 742.408 909.137 649.924 872.137 633.424C796.797 683.147 793.62 729.279 772.637 802.424H866.637Z" fill="#086B99"/>
<path d="M855.637 792.923C851.738 791.121 842.637 791.924 841.637 791.924C840.637 791.924 831.137 787.424 831.137 787.424L781.137 826.424L867.137 827.423C873.576 810.16 869.3 799.239 855.637 792.923Z" fill="#0A78AC"/>
<path d="M720.137 996.424C725.637 995.924 746.137 992.924 746.137 992.924L755.637 992.924C762.137 998.423 757.137 1007.92 757.137 1007.92H707.637C707.921 997.622 714.637 996.923 720.137 996.424Z" fill="#0E8AC3"/>
<path d="M605.376 971.237C609.618 974.773 626.235 987.147 626.235 987.147L632.953 993.865C633.66 1002.35 623.407 1005.53 623.407 1005.53L588.405 970.53C595.89 963.446 601.133 967.702 605.376 971.237Z" fill="#0E8AC3"/>
<path d="M626.235 987.854L634.367 976.187L644.267 984.672L632.953 993.865C628.663 993.297 627.568 991.598 626.235 987.854Z" fill="#F7C5A5"/>
<path d="M746.637 993.424L744.137 979.424L757.137 978.424L755.637 992.924C752.203 995.556 750.227 995.129 746.637 993.424Z" fill="#F7C5A5"/>
<path d="M748.137 861.924C770.395 846.41 780.91 835.543 797.637 813.924L821.637 776.424L743.637 780.424L708.137 845.924L630.637 979.424L644.137 986.924C680.839 939.175 700.216 913.543 714.137 887.424L748.137 861.924Z" fill="#4C5575"/>
<path d="M813.138 532.424L816.638 526.924C821.529 527.499 823.584 528.782 826.638 531.924L823.138 538.424L813.138 532.424Z" fill="#FFDA6A"/>
<path d="M865.138 696.924L857.138 684.424L863.638 678.924L885.638 677.424C892.429 696.692 897.961 709.892 893.638 715.424L885.638 719.924L818.138 708.424L809.638 692.924L865.138 696.924Z" fill="#F6C4A4"/>
<path d="M821.138 615.923C861.138 618.923 876.99 643.809 887.638 678.423L855.138 688.424C852.352 683.266 850.853 678.354 848.138 670.924L849.878 695.924L811.638 693.424L818.638 708.424L851.138 714.014L853.638 749.924L764.138 749.424L764.638 723.424L736.638 658.423C756.638 623.424 781.138 612.923 821.138 615.923Z" fill="#0E8AC3"/>
<path d="M820.637 619.924C820.151 610.428 819.199 605.033 817.637 595.424L799.137 605.924L797.637 619.924C798.637 628.424 817.137 628.424 820.637 619.924Z" fill="#F5B19D"/>
<path d="M788.137 608.424C792.136 610.924 809.137 608.424 818.137 594.924L835.137 588.424L817.637 558.424L779.137 571.924C778.942 587.285 784.137 605.924 788.137 608.424Z" fill="#F6C4A4"/>
<path d="M588.405 970.53L623.407 1005.53L622.7 1006.24L621.639 1007.3L586.637 972.298L588.405 970.53Z" fill="#0B6C99"/>
<path d="M612.93 978.084L608.18 984.917" stroke="white" stroke-linecap="round"/>
<path d="M614.344 979.498L609.595 986.332" stroke="white" stroke-linecap="round"/>
<path d="M615.758 980.912L611.009 987.746" stroke="white" stroke-linecap="round"/>
<path d="M849.136 534.923C844.136 522.924 825.54 516.9 816.637 526.924C820.365 527.774 824.485 531.169 827.136 533.924C829.788 536.678 829.713 550.615 829.136 547.924C826.106 538.273 820.136 533.924 812.636 531.924C807.576 530.574 802.29 532.509 795.637 536.424L785.136 543.923C772.637 532.924 735.137 574.924 787.636 572.924C803.636 571.424 804.136 557.424 812.636 569.424C816.088 574.646 817.868 577.763 820.136 584.424C820.136 584.424 818.136 586.924 818.136 589.924C817.136 601.924 820.611 607.893 829.636 617.424C829.636 617.424 839.377 627.356 846.637 632.424C855.946 638.921 872.637 645.424 872.637 645.424C879.637 610.924 858.136 611.924 851.136 579.924C852.136 567.924 856.011 551.424 849.136 534.923Z" fill="#4B5574"/>
<path d="M732.137 805.924C810.637 830.424 859.637 808.924 853.637 749.424C853.637 749.424 731.137 748.424 700.637 748.924C670.137 749.423 674.637 770.424 678.137 780.924C681.637 791.424 743.637 979.924 743.637 979.924H757.637C759.356 910.138 756.216 871.656 732.137 805.924Z" fill="#3D637E"/>
<path d="M707.637 1007.92H757.137V1008.92V1010.42H707.637V1007.92Z" fill="#0B6C99"/>
<path d="M730.32 995.924L731.794 1004.11" stroke="white" stroke-linecap="round"/>
<path d="M732.32 995.924L733.794 1004.11" stroke="white" stroke-linecap="round"/>
<path d="M734.32 995.924L735.794 1004.11" stroke="white" stroke-linecap="round"/>
<path d="M705.138 715.364C703.184 708.214 707.791 703.06 718.638 693.364L733.637 715.864L705.138 715.364Z" fill="#F6C4A4"/>
<path d="M1084.14 989.864L1081.64 983.864L1068.64 989.364L1070.64 994.864L1080.14 998.364L1084.14 989.864Z" fill="#F6C4A4"/>
<path d="M1070.64 994.864C1077.16 996.134 1080.08 994.562 1084.14 989.864C1089.94 992.298 1092.36 995.12 1095.14 1002.86L1085.64 1011.36C1085.64 1011.36 1083.14 1008.86 1082.14 1008.36C1081.14 1007.86 1071.14 1020.86 1071.14 1020.86H1038.64C1038.67 1018.81 1039.39 1017.62 1040.14 1017.36C1056.14 1011.36 1065.03 1008.83 1070.64 994.864Z" fill="#4B5575"/>
<path d="M1046.64 700.864L1065.14 688.864L1081.64 789.364C1073.07 805.247 1068.94 814.189 1065.64 830.364C1064.58 837.524 1068.19 843.753 1069.64 852.364C1070.58 857.939 1071.45 863.253 1072.26 868.364C1078.81 909.869 1081.14 937.982 1081.64 983.864L1068.64 989.864C1038.46 911.18 1013.27 832.364 1011.14 807.364C1009.01 782.364 1027.6 736.587 1046.64 700.864Z" fill="#4C5575"/>
<path d="M1129.14 1004.86V993.864L1115.64 993.364V997.364L1115.14 1004.36L1129.14 1004.86Z" fill="#F6C4A4"/>
<path d="M999.137 542.364L984.637 521.864L976.637 524.364L975.137 543.864L981.137 559.864L999.137 542.364Z" fill="#F5B29D"/>
<path d="M942.637 512.279C944.697 525.915 947.991 533.606 953.637 539.864C955.861 542.328 963.137 547.864 967.137 547.864C971.137 547.864 972.984 546.608 978.137 542.364C986.637 535.364 985.137 535.364 985.137 530.864C985.137 526.364 984.637 521.864 984.637 521.864L981.442 517.955C985.736 514.951 986.162 510.731 984.589 509.184C983.015 507.636 980.147 507.892 976.723 512.279L967.284 498.864L942.637 512.279Z" fill="#F6C4A4"/>
<path d="M926.694 509.369C928.506 524.114 962.694 506.568 966.693 504.369C970.693 502.171 976.93 513.795 984.637 521.864C988.089 507.015 979.829 488.079 973.694 487.869C967.558 487.659 924.881 494.623 926.694 509.369Z" fill="#4B5574"/>
<path d="M976.473 703.364L977.473 635.864L976.973 611.864L1004.97 620.364L1000.97 640.364C1000.97 640.364 988.973 700.364 987.473 703.864C985.973 707.364 982.973 715.364 976.473 715.364H932.973C929.473 715.364 954.473 703.864 955.973 703.364C957.473 702.864 968.467 703.351 976.473 703.364Z" fill="#F5B29D"/>
<path d="M858.137 661.864C863.637 663.364 943.637 636.864 984.637 582.864L1019.14 603.864C975.092 643.918 911.953 673.478 840.637 677.364C836.218 676.888 833.493 673.643 828.137 662.364C816.812 666.449 804.637 659.364 804.637 658.864C804.637 658.364 838.637 654.364 840.637 654.364C842.637 654.364 852.637 660.364 858.137 661.864Z" fill="#F6C4A4"/>
<path d="M1136.64 815.864C1147.63 719.816 1145.41 678.46 1120.64 647.864L1064.64 687.864L1115.14 994.864H1130.14C1139.42 921.303 1143.1 880.889 1136.64 815.864Z" fill="#3D637E"/>
<path d="M1121.64 648.864C1118.64 651.864 1053.64 696.973 1047.14 701.364C1043.49 703.825 1011.25 665.475 992.137 625.364L1016.64 604.364L1017.64 603.364L984.637 583.364L981.137 587.364C977.938 569.897 978.651 555.114 990.636 545.864C1036.64 510.364 1124.64 645.864 1121.64 648.864Z" fill="#0E8AC3"/>
<path d="M1130.14 1001.86H1114.64C1105.34 1007.82 1094.14 1014.36 1086.64 1014.86C1079.14 1015.36 1076.79 1016.55 1076.64 1021.36H1101.14C1101.64 1021.36 1121.64 1018.36 1121.64 1018.36V1021.36H1132.64C1132.64 1016.86 1133.54 1005.27 1130.14 1001.86Z" fill="#4B5575"/>
<path d="M265.637 1019.86L289.637 722.864H295.137L271.137 1020.86L265.637 1019.86Z" fill="#086B99"/>
<path d="M1011.14 1018.86L987.137 721.864H981.637L1005.64 1019.86L1011.14 1018.86Z" fill="#086B99"/>
<path d="M1008.51 723.365L1012.37 723.364C1013.87 723.364 1009.37 714.864 1002.87 714.864H275.874C270.272 715.309 264.374 723.253 265.874 723.364C267.312 723.471 950.817 723.373 1008.51 723.365Z" fill="#0E8AC3"/>
<path d="M845.637 710.364H820.049L818.543 710.864L820.55 714.864H845.136L845.637 710.364Z" fill="#E2EFED"/>
<path d="M795.24 658.864H701.637L728.453 714.864H822.056L795.24 658.864Z" fill="#D1E9F0"/>
<path d="M759.946 690.467C760.879 692.874 764.414 695.178 764.414 695.178C761.665 696.238 758.464 694.59 757.265 691.5C756.066 688.409 757.323 685.045 760.072 683.986C760.072 683.986 759.012 688.06 759.946 690.467Z" fill="#A8DBEA"/>
<path d="M763.392 689.14C764.325 691.547 767.86 693.851 767.86 693.851C765.111 694.91 761.91 693.263 760.711 690.172C759.512 687.081 760.769 683.717 763.518 682.658C763.518 682.658 762.458 686.732 763.392 689.14Z" fill="#A8DBEA"/>
</svg>
