<svg width="22" height="22" viewBox="0 0 22 22" fill="none" xmlns="http://www.w3.org/2000/svg">
<path fill-rule="evenodd" clip-rule="evenodd" d="M9.58269 11C9.58269 12.1059 8.68648 13.0022 7.58053 13.0022C6.47459 13.0022 5.57837 12.1059 5.57837 11C5.57837 9.89405 6.47459 8.99783 7.58053 8.99783H7.58377C8.68864 8.99891 9.58269 9.89513 9.58269 11Z" stroke="black" stroke-width="1.5" stroke-linecap="round" stroke-linejoin="round"/>
<path d="M9.58594 11H16.4162V13.0022" stroke="black" stroke-width="1.5" stroke-linecap="round" stroke-linejoin="round"/>
<path d="M13.3591 13.0022V11" stroke="black" stroke-width="1.5" stroke-linecap="round" stroke-linejoin="round"/>
<path fill-rule="evenodd" clip-rule="evenodd" d="M1 11C1 3.50054 3.50054 1 11 1C18.4995 1 21 3.50054 21 11C21 18.4995 18.4995 21 11 21C3.50054 21 1 18.4995 1 11Z" stroke="black" stroke-width="1.5" stroke-linecap="round" stroke-linejoin="round"/>
</svg>
