<svg width="16" height="22" viewBox="0 0 16 22" fill="none" xmlns="http://www.w3.org/2000/svg">
<path fill-rule="evenodd" clip-rule="evenodd" d="M8.10682 21.0001C4.27354 21.0001 1 20.4036 1 18.0147C1 15.6257 4.25277 13.4204 8.10682 13.4204C11.9401 13.4204 15.2136 15.6044 15.2136 17.9933C15.2136 20.3813 11.9609 21.0001 8.10682 21.0001Z" stroke="black" stroke-width="1.5" stroke-linecap="round" stroke-linejoin="round"/>
<path fill-rule="evenodd" clip-rule="evenodd" d="M8.09936 10.1098C10.6149 10.1098 12.6538 8.07095 12.6538 5.55539C12.6538 3.03982 10.6149 1 8.09936 1C5.5838 1 3.54397 3.03982 3.54397 5.55539C3.53548 8.06245 5.5602 10.1013 8.06727 10.1098C8.07859 10.1098 8.08898 10.1098 8.09936 10.1098Z" stroke="black" stroke-width="1.5" stroke-linecap="round" stroke-linejoin="round"/>
</svg>
