<svg width="22" height="22" viewBox="0 0 22 22" fill="none" xmlns="http://www.w3.org/2000/svg">
<path fill-rule="evenodd" clip-rule="evenodd" d="M11 1C8.73761 1 8.52371 4.94058 7.17679 6.33286C5.82987 7.72514 1.64244 6.13324 1.06065 8.60447C0.480083 11.077 4.24706 11.9159 4.71151 14.0371C5.17841 16.1584 2.87692 19.1388 4.84352 20.622C6.81012 22.104 8.92706 18.7497 11 18.7497C13.0729 18.7497 15.1899 22.104 17.1565 20.622C19.1231 19.1388 16.8228 16.1584 17.2885 14.0371C17.7541 11.9159 21.5199 11.077 20.9393 8.60447C20.3588 6.13324 16.1701 7.72514 14.8244 6.33286C13.4775 4.94058 13.2624 1 11 1Z" stroke="black" stroke-width="1.5" stroke-linecap="round" stroke-linejoin="round"/>
</svg>
