<svg width="22" height="22" viewBox="0 0 22 22" fill="none" xmlns="http://www.w3.org/2000/svg">
<path fill-rule="evenodd" clip-rule="evenodd" d="M21.0664 5.09683C21.0664 7.35902 19.2323 9.19366 16.9709 9.19366C14.7095 9.19366 12.8765 7.35902 12.8765 5.09683C12.8765 2.83464 14.7095 1 16.9709 1C19.2323 1 21.0664 2.83464 21.0664 5.09683Z" stroke="#F4F4F4" stroke-width="1.5" stroke-linecap="round" stroke-linejoin="round"/>
<path fill-rule="evenodd" clip-rule="evenodd" d="M9.1899 5.09683C9.1899 7.35902 7.35688 9.19366 5.09445 9.19366C2.83402 9.19366 1 7.35902 1 5.09683C1 2.83464 2.83402 1 5.09445 1C7.35688 1 9.1899 2.83464 9.1899 5.09683Z" stroke="#F4F4F4" stroke-width="1.5" stroke-linecap="round" stroke-linejoin="round"/>
<path fill-rule="evenodd" clip-rule="evenodd" d="M21.0664 16.9041C21.0664 19.1663 19.2323 21 16.9709 21C14.7095 21 12.8765 19.1663 12.8765 16.9041C12.8765 14.642 14.7095 12.8073 16.9709 12.8073C19.2323 12.8073 21.0664 14.642 21.0664 16.9041Z" stroke="#F4F4F4" stroke-width="1.5" stroke-linecap="round" stroke-linejoin="round"/>
<path fill-rule="evenodd" clip-rule="evenodd" d="M9.1899 16.9041C9.1899 19.1663 7.35688 21 5.09445 21C2.83402 21 1 19.1663 1 16.9041C1 14.642 2.83402 12.8073 5.09445 12.8073C7.35688 12.8073 9.1899 14.642 9.1899 16.9041Z" stroke="#F4F4F4" stroke-width="1.5" stroke-linecap="round" stroke-linejoin="round"/>
</svg>
