<svg width="22" height="22" viewBox="0 0 22 22" fill="none" xmlns="http://www.w3.org/2000/svg">
<path fill-rule="evenodd" clip-rule="evenodd" d="M21 5.09683C21 7.35902 19.1659 9.19366 16.9045 9.19366C14.6431 9.19366 12.8101 7.35902 12.8101 5.09683C12.8101 2.83464 14.6431 1 16.9045 1C19.1659 1 21 2.83464 21 5.09683Z" stroke="black" stroke-width="1.5" stroke-linecap="round" stroke-linejoin="round"/>
<path fill-rule="evenodd" clip-rule="evenodd" d="M9.1235 5.09683C9.1235 7.35902 7.29047 9.19366 5.02804 9.19366C2.76762 9.19366 0.933594 7.35902 0.933594 5.09683C0.933594 2.83464 2.76762 1 5.02804 1C7.29047 1 9.1235 2.83464 9.1235 5.09683Z" stroke="black" stroke-width="1.5" stroke-linecap="round" stroke-linejoin="round"/>
<path fill-rule="evenodd" clip-rule="evenodd" d="M21 16.9041C21 19.1663 19.1659 21 16.9045 21C14.6431 21 12.8101 19.1663 12.8101 16.9041C12.8101 14.642 14.6431 12.8073 16.9045 12.8073C19.1659 12.8073 21 14.642 21 16.9041Z" stroke="black" stroke-width="1.5" stroke-linecap="round" stroke-linejoin="round"/>
<path fill-rule="evenodd" clip-rule="evenodd" d="M9.1235 16.9041C9.1235 19.1663 7.29047 21 5.02804 21C2.76762 21 0.933594 19.1663 0.933594 16.9041C0.933594 14.642 2.76762 12.8073 5.02804 12.8073C7.29047 12.8073 9.1235 14.642 9.1235 16.9041Z" stroke="black" stroke-width="1.5" stroke-linecap="round" stroke-linejoin="round"/>
</svg>
