<svg width="21" height="20" viewBox="0 0 21 20" fill="none" xmlns="http://www.w3.org/2000/svg">
<path d="M16.2932 14.617L19.8689 18.1919C20.2595 18.5824 20.2593 19.2159 19.8687 19.6065C19.4781 19.9971 18.8446 19.9973 18.4541 19.6067L14.8792 16.031C13.2859 17.3082 11.3042 18.0029 9.26221 18C4.29421 18 0.262207 13.968 0.262207 9C0.262207 4.032 4.29421 0 9.26221 0C14.2302 0 18.2622 4.032 18.2622 9C18.2651 11.042 17.5704 13.0237 16.2932 14.617ZM14.2872 13.875C15.5563 12.5699 16.2651 10.8204 16.2622 9C16.2622 5.132 13.1292 2 9.26221 2C5.39421 2 2.26221 5.132 2.26221 9C2.26221 12.867 5.39421 16 9.26221 16C11.0826 16.0029 12.8321 15.2941 14.1372 14.025L14.2872 13.875Z" fill="#7876E6"/>
</svg>
