<?xml version="1.0" standalone="no"?>
<!DOCTYPE svg PUBLIC "-//W3C//DTD SVG 20010904//EN"
 "http://www.w3.org/TR/2001/REC-SVG-20010904/DTD/svg10.dtd">
<svg version="1.0" xmlns="http://www.w3.org/2000/svg"
 width="700.000000pt" height="700.000000pt" viewBox="0 0 700.000000 700.000000"
 preserveAspectRatio="xMidYMid meet">
<metadata>
Created by potrace 1.14, written by Peter Selinger 2001-2017
</metadata>
<g transform="translate(0.000000,700.000000) scale(0.100000,-0.100000)"
fill="#000000" stroke="none">
<path d="M875 6312 c-33 -2 -64 -7 -69 -12 -6 -6 -11 -397 -12 -999 l-2 -989
21 -4 c12 -1 403 -3 870 -2 l847 0 1 -230 c0 -221 6 -705 8 -717 1 -8 478 -5
486 3 13 12 -5 26 -54 43 -52 17 -74 37 -114 101 -23 38 -67 153 -67 177 0 15
30 -14 46 -44 14 -28 39 -47 72 -54 9 -2 28 -7 41 -11 21 -6 22 -5 12 14 -6
11 -16 24 -21 27 -17 11 -11 51 11 71 11 10 18 26 16 34 -3 13 2 16 22 13 54
-9 54 -12 12 -55 -23 -24 -41 -46 -41 -50 0 -3 11 -15 23 -25 13 -10 30 -29
37 -42 11 -22 9 -27 -29 -58 -50 -42 -56 -79 -13 -89 15 -4 60 -24 101 -45 41
-22 80 -39 88 -39 8 0 48 -18 89 -40 42 -22 88 -40 103 -40 15 0 36 -7 47 -15
10 -8 30 -15 44 -15 29 -1 104 -33 114 -49 4 -6 -9 -27 -29 -46 -57 -58 -40
-59 43 -4 42 28 102 68 132 88 30 20 57 38 60 41 3 3 32 27 65 52 94 71 199
179 251 257 44 67 47 211 4 211 -25 0 -56 48 -64 101 -3 21 -10 39 -15 39 -16
0 -34 62 -32 113 1 29 6 81 12 117 6 36 13 79 16 95 2 17 11 59 19 95 9 36 17
79 20 95 5 36 5 278 -1 320 -2 17 -6 57 -9 90 -14 138 -44 263 -79 330 -53 99
-173 227 -272 290 -153 96 -363 131 -543 90 -68 -16 -196 -76 -270 -127 -107
-74 -182 -164 -182 -220 0 -25 3 -28 34 -28 31 0 37 -6 82 -77 26 -42 59 -104
72 -138 14 -33 31 -69 38 -80 7 -11 15 -35 17 -53 3 -19 13 -42 22 -52 30 -34
-5 -145 -71 -223 -23 -27 -23 -30 -8 -65 11 -27 14 -54 9 -101 -3 -36 -8 -68
-11 -72 -2 -4 -7 -65 -9 -135 -4 -93 -10 -133 -20 -144 -23 -25 -18 -48 19
-99 l35 -47 -25 -19 c-31 -23 -64 -68 -69 -94 -6 -32 19 -44 85 -39 33 2 60 1
60 -4 0 -4 -12 -9 -27 -9 -16 -1 -41 -3 -58 -4 -43 -3 -84 21 -91 53 -3 15 -8
34 -10 43 -3 10 11 32 36 56 l41 39 -26 57 c-18 38 -25 66 -21 85 7 30 10 45
21 112 13 72 14 80 19 188 4 64 1 119 -6 147 -12 43 -11 44 31 99 23 31 50 75
60 99 l18 43 -23 29 c-13 17 -24 36 -24 43 0 7 -16 29 -35 49 -27 28 -33 41
-29 63 9 40 -24 106 -84 170 l-52 55 -21 -27 c-11 -16 -25 -28 -31 -28 -15 0
-4 69 17 113 14 30 17 68 17 224 2 471 -5 550 -51 649 -53 112 -174 207 -296
230 -38 7 -1325 12 -1450 6z m683 -1000 l1 -499 -189 -1 c-105 0 -191 2 -191
6 -4 21 -4 960 -1 975 4 15 21 17 192 17 l188 0 0 -498z m349 466 c125 -41
193 -139 193 -277 0 -110 -55 -220 -130 -262 -22 -13 -40 -26 -40 -31 0 -4 13
-14 28 -22 33 -17 95 -83 115 -123 22 -42 36 -103 43 -181 l6 -70 -220 0 -221
0 2 486 c2 268 6 493 11 500 11 19 129 8 213 -20z m868 -1244 c9 -4 24 -23 35
-44 21 -41 16 -79 -15 -126 -41 -63 -165 13 -165 101 0 21 9 30 53 50 56 26
66 29 92 19z"/>
<path d="M2727 4493 c-4 -3 -7 -15 -7 -25 0 -10 -6 -18 -14 -18 -7 0 -19 -6
-25 -14 -20 -24 19 -60 63 -59 64 2 81 34 51 93 -15 29 -51 41 -68 23z"/>
<path d="M4175 3619 c-4 -11 -27 -46 -53 -77 -43 -53 -83 -97 -224 -242 -31
-32 -75 -83 -98 -112 -47 -59 -150 -257 -150 -288 0 -20 0 -20 -52 1 -29 11
-77 32 -108 46 -79 37 -131 41 -169 14 -37 -27 -69 -70 -74 -102 -3 -13 -11
-36 -18 -52 -11 -24 -14 -25 -28 -13 -14 13 -16 10 -17 -32 -1 -65 -8 -103
-20 -100 -5 2 -8 14 -7 28 6 55 3 138 -5 187 -10 61 0 89 23 59 8 -11 15 -29
15 -41 0 -12 6 -30 14 -40 13 -18 15 -17 25 20 6 24 30 58 63 92 l52 53 -56
56 c-31 31 -73 85 -93 120 -21 35 -42 64 -48 64 -16 0 0 -71 34 -145 48 -107
51 -115 34 -115 -7 0 -28 23 -46 50 l-33 50 -14 -32 c-7 -18 -25 -85 -38 -148
-14 -63 -32 -137 -41 -165 -19 -62 -95 -227 -100 -221 -3 2 2 19 11 38 36 77
88 226 101 288 15 72 50 191 69 234 l24 54 -20 32 -19 33 -19 -30 c-16 -27
-24 -31 -84 -35 -54 -5 -87 -16 -188 -66 -68 -33 -170 -89 -228 -123 -222
-131 -249 -147 -279 -160 -38 -17 -64 -70 -80 -162 -19 -110 -23 -185 -26
-542 -5 -485 -13 -815 -20 -851 -3 -18 -12 -45 -19 -60 -17 -34 -21 -67 -41
-304 -7 -77 -9 -101 -26 -207 -5 -35 -9 -116 -8 -182 0 -68 -4 -128 -10 -139
-6 -11 -16 -44 -22 -73 -6 -28 -19 -69 -29 -91 -10 -23 -18 -68 -19 -113 l-2
-75 1572 2 c1389 3 1572 5 1574 18 1 8 5 53 9 100 8 105 45 371 53 383 10 16
23 -18 28 -75 3 -29 8 -66 10 -83 4 -34 17 -227 19 -295 l1 -45 523 -3 c522
-2 526 -2 524 28 0 3 -3 77 -7 165 -4 88 -8 176 -10 195 -2 19 -6 78 -9 130
-4 52 -9 111 -11 130 -2 19 -7 60 -10 90 -5 46 -30 231 -41 305 -1 11 -16 88
-32 170 -17 83 -33 177 -37 210 -13 134 -25 214 -36 260 -27 103 -122 417
-145 476 -14 37 -27 80 -30 95 -3 16 -18 72 -34 124 -16 52 -31 111 -33 130
-5 34 -21 107 -54 237 -27 109 -42 119 -483 296 -282 113 -434 168 -595 216
-146 44 -261 118 -449 290 -55 50 -105 91 -112 91 -7 0 -16 -9 -19 -21z
m-1311 -804 c-4 -8 -10 -12 -15 -9 -11 6 -2 24 11 24 5 0 7 -7 4 -15z m406
-120 c0 -7 -24 -83 -54 -167 -61 -170 -93 -270 -100 -308 -16 -84 -30 -148
-60 -274 -19 -77 -38 -157 -41 -176 -3 -19 -7 -46 -10 -60 -6 -31 -12 -70 -20
-135 -4 -27 -8 -63 -11 -80 -2 -16 -6 -50 -9 -75 -3 -25 -10 -83 -16 -130 -6
-47 -12 -102 -14 -123 -5 -47 -24 -222 -30 -262 -2 -16 -7 -57 -11 -90 -3 -33
-8 -68 -9 -77 -2 -9 -7 -48 -10 -85 -4 -37 -9 -77 -11 -88 -2 -11 -6 -74 -9
-140 -6 -122 -13 -190 -20 -183 -10 10 -17 73 -20 173 -2 61 -6 152 -10 202
-6 77 -5 97 9 118 21 32 20 40 -9 83 -35 51 -31 60 7 17 25 -30 33 -34 44 -23
19 19 45 197 59 413 3 44 8 96 10 115 3 19 7 60 10 90 6 51 29 203 40 260 31
159 69 330 96 433 19 75 20 79 3 91 -16 12 -16 15 4 36 20 22 62 128 62 158 0
8 -6 12 -15 8 -22 -8 -19 1 14 43 35 45 62 97 54 105 -3 3 -18 3 -32 0 -21 -4
-18 -1 12 16 35 19 53 46 62 93 3 14 0 17 -12 13 -13 -5 -14 -4 -3 9 16 19 50
20 50 0z m-465 -82 c-6 -52 -9 -58 -24 -49 -9 6 14 96 25 96 3 0 2 -21 -1 -47z
m128 -118 c-3 -9 -8 -14 -10 -11 -3 3 -2 9 2 15 9 16 15 13 8 -4z m-16 -77
c-3 -7 -5 -2 -5 12 0 14 2 19 5 13 2 -7 2 -19 0 -25z m974 -9 c-13 -10 -28
-19 -35 -19 -6 0 3 11 19 24 17 13 32 22 35 19 3 -2 -6 -13 -19 -24z m-32
-216 c-23 -54 -61 -138 -84 -188 -46 -97 -52 -116 -60 -215 -8 -103 -49 -310
-68 -345 -6 -11 -18 -51 -27 -89 -15 -69 -33 -94 -42 -59 -3 10 -3 115 -1 233
2 118 0 228 -3 245 l-6 29 -18 -22 c-10 -12 -23 -22 -28 -22 -6 0 -13 35 -15
78 -3 42 -7 92 -10 110 -3 25 -1 32 9 28 8 -3 33 1 56 10 l42 15 -21 -23 c-22
-24 -47 -77 -39 -85 2 -2 19 14 37 37 l33 41 22 -42 21 -43 14 25 c34 62 89
180 95 205 7 26 5 26 -112 -36 -65 -35 -127 -70 -136 -78 -10 -8 -18 -11 -18
-5 0 16 31 39 90 67 72 33 160 104 207 165 47 60 97 98 101 77 2 -8 -16 -59
-39 -113z m-1003 -9 c-13 -49 -32 -124 -42 -166 -10 -43 -19 -76 -22 -74 -2 3
6 49 19 103 13 54 23 100 24 103 1 3 4 14 7 25 3 11 12 42 19 68 8 26 15 44
17 39 2 -6 -8 -50 -22 -98z m-66 -286 c-27 -104 -35 -439 -14 -563 7 -44 18
-116 24 -160 6 -44 16 -100 22 -125 19 -77 21 -110 8 -125 -7 -8 -17 -15 -22
-15 -6 0 -5 7 2 15 11 13 11 32 0 102 -7 47 -14 105 -16 129 -1 23 -10 66 -18
96 -20 71 -28 159 -28 287 0 96 9 248 17 289 1 10 6 36 10 60 4 23 10 42 15
42 5 0 5 -15 0 -32z"/>
<path d="M3606 1490 c-9 -22 -16 -50 -16 -62 0 -39 29 2 39 55 10 58 -1 61
-23 7z"/>
</g>
</svg>
