<svg width="186" height="62" viewBox="0 0 186 62" fill="none" xmlns="http://www.w3.org/2000/svg">
<path d="M25.5432 26.0622C27.763 27.0273 29.3072 28.0407 30.1758 29.1023C31.0444 30.1479 31.6878 31.7725 32.106 33.9762C32.6529 36.8715 33.4089 38.8178 34.374 39.8151C35.3391 40.7963 36.6018 41.3191 38.1621 41.3834C38.5964 41.4156 38.8136 41.5765 38.8136 41.866C38.8136 42.1555 38.5642 42.3003 38.0656 42.3003C33.5617 42.3003 30.8272 42.1555 29.8621 41.866C28.9131 41.5604 28.2053 39.9116 27.7388 36.9198C27.3045 34.0083 26.8461 31.8851 26.3636 30.55C25.8971 29.1988 25.1411 28.1694 24.0955 27.4616C23.0661 26.7378 21.4495 26.3759 19.2458 26.3759C18.4094 26.3759 17.4604 26.4643 16.3987 26.6413C16.3183 27.6546 16.2781 28.7082 16.2781 29.802C16.2781 33.9359 16.3344 36.6141 16.447 37.8366C16.5596 39.043 16.8974 39.9277 17.4604 40.4907C18.0394 41.0376 18.9965 41.3271 20.3316 41.3593C20.9107 41.3754 21.2002 41.5121 21.2002 41.7695C21.2002 42.0751 20.8463 42.2279 20.1386 42.2279H8.19525C7.50358 42.2279 7.15775 42.0751 7.15775 41.7695C7.15775 41.496 7.4312 41.3593 7.97809 41.3593C9.20057 41.3593 10.0451 41.1743 10.5115 40.8044C10.9941 40.4344 11.3721 39.8634 11.6455 39.0913C11.919 38.3031 12.0557 36.8876 12.0557 34.8448L12.0075 29.9227L12.0316 22.4189C12.0316 18.5906 11.9431 16.0572 11.7662 14.8186C11.6053 13.58 11.3077 12.7516 10.8734 12.3334C10.4391 11.8991 9.43381 11.5613 7.85745 11.3201C7.51966 11.2718 7.35077 11.1351 7.35077 10.9099C7.35077 10.6525 7.68856 10.5238 8.36414 10.5238L22.6479 10.2102C26.5888 10.2102 29.4439 10.9662 31.2133 12.4782C32.9987 13.9902 33.8915 15.84 33.8915 18.0276C33.8915 19.4109 33.5295 20.6736 32.8057 21.8157C32.098 22.9578 31.2535 23.7861 30.2723 24.3009C29.2911 24.8156 27.7147 25.4027 25.5432 26.0622ZM16.3987 25.4349C19.4871 25.3705 21.8034 25.1534 23.3476 24.7834C24.8918 24.4135 26.2027 23.6012 27.2804 22.3465C28.3742 21.0919 28.9211 19.604 28.9211 17.8828C28.9211 16.0652 28.3179 14.4808 27.1115 13.1297C25.9051 11.7785 23.9749 11.1029 21.3208 11.1029C19.8732 11.1029 18.2727 11.2959 16.5194 11.682C16.3263 16.1054 16.2298 19.6281 16.2298 22.25C16.2298 23.1508 16.2861 24.2124 16.3987 25.4349Z" fill="#445B5E"/>
<path d="M73.2656 22.3125C73.3438 23.3281 73.4141 26.2656 73.4766 31.125C73.5078 34.1562 73.5859 36.1797 73.7109 37.1953C73.8359 38.1953 74.2266 39.0234 74.8828 39.6797C75.5547 40.3359 76.3203 40.6641 77.1797 40.6641C78.3047 40.6641 79.4297 40.1406 80.5547 39.0938C81.6953 38.0469 82.3984 36.9297 82.6641 35.7422C82.9297 34.5391 83.0625 31.7891 83.0625 27.4922C83.0625 25.4922 82.9375 24.2812 82.6875 23.8594C82.4375 23.4375 81.8281 23.1953 80.8594 23.1328C80.5 23.1172 80.3203 22.9844 80.3203 22.7344C80.3203 22.5625 80.375 22.4531 80.4844 22.4062C80.5938 22.3438 80.9453 22.3125 81.5391 22.3125H86.2266C86.3672 24.0156 86.4375 25.9219 86.4375 28.0312L86.25 36.8438C86.25 38.6562 86.3984 39.7969 86.6953 40.2656C87.0078 40.7344 87.4922 41 88.1484 41.0625C88.5547 41.125 88.7578 41.2812 88.7578 41.5312C88.7578 41.8125 88.3594 41.9531 87.5625 41.9531H83.8594C83.2188 41.9531 82.8984 41.7422 82.8984 41.3203C82.8984 41.1953 82.9062 41.0547 82.9219 40.8984C82.9688 40.4297 82.9922 39.9531 82.9922 39.4688C82.9922 39.0625 82.9688 38.4688 82.9219 37.6875C81.7344 39.2188 80.5 40.3672 79.2188 41.1328C77.9375 41.8984 76.6016 42.2812 75.2109 42.2812C74.0234 42.2812 73.0234 41.9922 72.2109 41.4141C71.4141 40.8359 70.8828 40.1406 70.6172 39.3281C70.3672 38.5 70.1953 36.4531 70.1016 33.1875C70.0078 29.9219 69.9609 27.3594 69.9609 25.5C69.9609 24.4844 69.9062 23.8516 69.7969 23.6016C69.6875 23.3516 69.3438 23.2109 68.7656 23.1797C68.1406 23.1328 67.8281 22.9766 67.8281 22.7109C67.8281 22.4453 68.2031 22.3125 68.9531 22.3125H73.2656ZM98.9062 9.89062C98.9531 11.8594 98.9922 13.8281 99.0234 15.7969L98.9766 30.3984L99.0703 37.4766C99.0703 38.8203 99.2578 39.7891 99.6328 40.3828C100.023 40.9766 100.852 41.3281 102.117 41.4375C102.617 41.4844 102.867 41.6328 102.867 41.8828C102.867 42.1484 102.664 42.2812 102.258 42.2812C102.148 42.2812 102.016 42.2734 101.859 42.2578C100.25 42.0859 98.3281 42 96.0938 42C94.7344 42 93.6406 42.0625 92.8125 42.1875C92.6406 42.2031 92.4844 42.2109 92.3438 42.2109C91.875 42.2109 91.6406 42.0703 91.6406 41.7891C91.6406 41.5234 91.8516 41.3828 92.2734 41.3672C93.6953 41.3516 94.625 40.9453 95.0625 40.1484C95.5156 39.3359 95.7422 37.9844 95.7422 36.0938L95.6719 22.7344C95.6562 18.4375 95.5938 15.875 95.4844 15.0469C95.3906 14.2031 95.0703 13.5 94.5234 12.9375C93.9766 12.375 93.2109 12.0156 92.2266 11.8594C91.6172 11.7656 91.3125 11.6016 91.3125 11.3672C91.3125 11.1016 91.5625 10.9531 92.0625 10.9219C94.9219 10.7344 97.0703 10.3906 98.5078 9.89062H98.9062ZM109.57 31.0547C109.508 31.8516 109.477 32.4844 109.477 32.9531C109.477 35.1719 110.125 37.0469 111.422 38.5781C112.734 40.1094 114.352 40.875 116.273 40.875C118.148 40.875 119.891 40.125 121.5 38.625C121.969 38.2031 122.266 37.9922 122.391 37.9922C122.641 37.9922 122.773 38.1953 122.789 38.6016C122.195 39.6953 121.18 40.6172 119.742 41.3672C118.305 42.1172 116.703 42.4922 114.938 42.4922C112.344 42.4922 110.148 41.5625 108.352 39.7031C106.555 37.8281 105.656 35.4609 105.656 32.6016C105.656 29.5391 106.641 26.9844 108.609 24.9375C110.594 22.8906 112.711 21.8672 114.961 21.8672C117.07 21.8672 118.977 22.6719 120.68 24.2812C122.383 25.875 123.234 27.75 123.234 29.9062C123.234 30.2344 123.18 30.4766 123.07 30.6328C122.977 30.7891 122.383 30.8672 121.289 30.8672L109.57 31.0547ZM109.57 29.8359C111.602 29.9297 113.57 29.9766 115.477 29.9766L116.719 29.9062C117.656 29.875 118.375 29.6953 118.875 29.3672C119.375 29.0234 119.625 28.4297 119.625 27.5859C119.625 26.2734 119.172 25.1328 118.266 24.1641C117.375 23.1797 116.32 22.6875 115.102 22.6875C113.977 22.6875 112.852 23.25 111.727 24.375C110.617 25.4844 109.898 27.3047 109.57 29.8359ZM133.523 24.0234C133.305 27.4766 133.195 30.8672 133.195 34.1953C133.195 36.7578 133.5 38.4297 134.109 39.2109C134.719 39.9922 135.594 40.3828 136.734 40.3828C137.562 40.3828 138.477 40.0781 139.477 39.4688C139.836 39.25 140.055 39.1406 140.133 39.1406C140.336 39.1406 140.438 39.25 140.438 39.4688C140.438 39.8438 139.883 40.4375 138.773 41.25C137.664 42.0625 136.305 42.4688 134.695 42.4688C133.102 42.4688 131.906 41.9141 131.109 40.8047C130.312 39.6953 129.914 38.0391 129.914 35.8359C129.914 33.5391 130.055 29.6016 130.336 24.0234C130.227 23.9922 129.484 23.9375 128.109 23.8594L126.703 23.7656C126.359 23.75 126.188 23.6328 126.188 23.4141C126.188 23.2109 126.383 23.0469 126.773 22.9219C127.414 22.6875 128.492 22 130.008 20.8594C131.523 19.7188 132.406 18.1094 132.656 16.0312C132.719 15.4844 132.891 15.2109 133.172 15.2109C133.453 15.2109 133.594 15.4297 133.594 15.8672C133.594 16.0078 133.586 16.1562 133.57 16.3125C133.523 16.9219 133.5 17.625 133.5 18.4219L133.523 22.0781L138.656 22.0078C139.531 22.0078 139.984 22.1094 140.016 22.3125C140 23.0312 139.883 23.4844 139.664 23.6719C138.852 23.6719 136.805 23.7891 133.523 24.0234ZM150.023 24.0234C149.805 27.4766 149.695 30.8672 149.695 34.1953C149.695 36.7578 150 38.4297 150.609 39.2109C151.219 39.9922 152.094 40.3828 153.234 40.3828C154.062 40.3828 154.977 40.0781 155.977 39.4688C156.336 39.25 156.555 39.1406 156.633 39.1406C156.836 39.1406 156.938 39.25 156.938 39.4688C156.938 39.8438 156.383 40.4375 155.273 41.25C154.164 42.0625 152.805 42.4688 151.195 42.4688C149.602 42.4688 148.406 41.9141 147.609 40.8047C146.812 39.6953 146.414 38.0391 146.414 35.8359C146.414 33.5391 146.555 29.6016 146.836 24.0234C146.727 23.9922 145.984 23.9375 144.609 23.8594L143.203 23.7656C142.859 23.75 142.688 23.6328 142.688 23.4141C142.688 23.2109 142.883 23.0469 143.273 22.9219C143.914 22.6875 144.992 22 146.508 20.8594C148.023 19.7188 148.906 18.1094 149.156 16.0312C149.219 15.4844 149.391 15.2109 149.672 15.2109C149.953 15.2109 150.094 15.4297 150.094 15.8672C150.094 16.0078 150.086 16.1562 150.07 16.3125C150.023 16.9219 150 17.625 150 18.4219L150.023 22.0781L155.156 22.0078C156.031 22.0078 156.484 22.1094 156.516 22.3125C156.5 23.0312 156.383 23.4844 156.164 23.6719C155.352 23.6719 153.305 23.7891 150.023 24.0234ZM163.102 31.0547C163.039 31.8516 163.008 32.4844 163.008 32.9531C163.008 35.1719 163.656 37.0469 164.953 38.5781C166.266 40.1094 167.883 40.875 169.805 40.875C171.68 40.875 173.422 40.125 175.031 38.625C175.5 38.2031 175.797 37.9922 175.922 37.9922C176.172 37.9922 176.305 38.1953 176.32 38.6016C175.727 39.6953 174.711 40.6172 173.273 41.3672C171.836 42.1172 170.234 42.4922 168.469 42.4922C165.875 42.4922 163.68 41.5625 161.883 39.7031C160.086 37.8281 159.188 35.4609 159.188 32.6016C159.188 29.5391 160.172 26.9844 162.141 24.9375C164.125 22.8906 166.242 21.8672 168.492 21.8672C170.602 21.8672 172.508 22.6719 174.211 24.2812C175.914 25.875 176.766 27.75 176.766 29.9062C176.766 30.2344 176.711 30.4766 176.602 30.6328C176.508 30.7891 175.914 30.8672 174.82 30.8672L163.102 31.0547ZM163.102 29.8359C165.133 29.9297 167.102 29.9766 169.008 29.9766L170.25 29.9062C171.188 29.875 171.906 29.6953 172.406 29.3672C172.906 29.0234 173.156 28.4297 173.156 27.5859C173.156 26.2734 172.703 25.1328 171.797 24.1641C170.906 23.1797 169.852 22.6875 168.633 22.6875C167.508 22.6875 166.383 23.25 165.258 24.375C164.148 25.4844 163.43 27.3047 163.102 29.8359Z" fill="#445B5E"/>
<path d="M50.9582 44.2372C58.6337 44.2372 64.8559 38.015 64.8559 30.3395C64.8559 22.6641 58.6337 16.4419 50.9582 16.4419C43.2827 16.4419 37.0605 22.6641 37.0605 30.3395C37.0605 38.015 43.2827 44.2372 50.9582 44.2372Z" fill="#F6D738"/>
<path d="M50.9583 42.1353C57.4728 42.1353 62.7539 36.8542 62.7539 30.3396C62.7539 23.8251 57.4728 18.544 50.9583 18.544C44.4437 18.544 39.1626 23.8251 39.1626 30.3396C39.1626 36.8542 44.4437 42.1353 50.9583 42.1353Z" fill="#F3CC30"/>
<path d="M57.1273 20.2748C58.5732 22.5258 59.2109 25.2014 58.9358 27.8626C58.6607 30.5238 57.4891 33.0124 55.6134 34.92C53.7376 36.8277 51.269 38.041 48.6128 38.3608C45.9566 38.6806 43.2706 38.088 40.9956 36.6802C41.9525 38.1699 43.2324 39.425 44.7405 40.3526C46.2486 41.2801 47.9462 41.8563 49.7073 42.0384C51.4685 42.2204 53.248 42.0037 54.9139 41.4042C56.5799 40.8048 58.0895 39.838 59.3309 38.5756C60.5723 37.3131 61.5135 35.7874 62.0849 34.1116C62.6562 32.4358 62.843 30.6529 62.6313 28.8951C62.4196 27.1373 61.815 25.4496 60.8622 23.9574C59.9094 22.4651 58.6328 21.2064 57.1273 20.2748Z" fill="#EDBD31"/>
<path d="M41.2253 31.4199C41.223 29.2439 41.9025 27.122 43.1682 25.3521C44.434 23.5821 46.2224 22.2533 48.2823 21.5521C50.3421 20.8509 52.5699 20.8127 54.6526 21.4427C56.7353 22.0728 58.5683 23.3395 59.894 25.065C59.1813 23.8326 58.2235 22.7594 57.0797 21.9119C55.9359 21.0643 54.6304 20.4602 53.2439 20.1371C51.8574 19.814 50.4194 19.7786 49.0187 20.0332C47.618 20.2877 46.2844 20.8268 45.1003 21.6171C43.9162 22.4074 42.9067 23.4321 42.1343 24.628C41.3618 25.8238 40.8428 27.1654 40.6093 28.5697C40.3758 29.9741 40.4327 31.4114 40.7766 32.7928C41.1205 34.1743 41.7441 35.4706 42.6087 36.6015C41.7013 35.0255 41.2242 33.2385 41.2253 31.4199Z" fill="#F7DB5E"/>
<path d="M51.9308 22.7286V24.2294C52.4629 24.3012 52.9678 24.5082 53.3973 24.8306C53.8529 25.2154 54.2269 25.6874 54.4972 26.2189L53.0013 27.0548C52.5516 26.2336 51.965 25.8279 51.2366 25.8279C50.8269 25.8137 50.4269 25.9552 50.1172 26.2238C49.9774 26.3455 49.8654 26.4957 49.7887 26.6644C49.7119 26.833 49.6723 27.0162 49.6723 27.2015C49.668 27.3689 49.6978 27.5355 49.76 27.6909C49.8222 27.8464 49.9155 27.9876 50.0341 28.1059C50.4623 28.4588 50.9442 28.741 51.4615 28.9418C51.986 29.1768 52.4968 29.4412 52.9916 29.7337C53.3287 29.9289 53.6364 30.1708 53.9057 30.4523C54.4781 31.0651 54.7886 31.8772 54.7709 32.7156C54.783 33.5487 54.5067 34.3604 53.9888 35.0131C53.468 35.6765 52.74 36.1464 51.921 36.3477V37.9364H50.5767V36.3917C49.7231 36.2973 48.9209 35.9364 48.284 35.3602C47.6776 34.6688 47.2749 33.8227 47.1206 32.916L48.8071 32.5641C48.9509 33.1782 49.241 33.7484 49.6528 34.2261C50.0529 34.5444 50.5522 34.7119 51.0633 34.6994C51.5744 34.6869 52.0649 34.4951 52.4489 34.1577C52.6337 33.9781 52.7788 33.7617 52.8748 33.5226C52.9708 33.2835 53.0156 33.0269 53.0062 32.7694C53.0168 32.5454 52.981 32.3217 52.9011 32.1123C52.8212 31.9028 52.6989 31.7121 52.5418 31.5522C52.3238 31.3666 52.088 31.2028 51.8379 31.0633C51.455 30.8382 51.0601 30.6342 50.6549 30.4523C49.9261 30.1812 49.2607 29.7636 48.6996 29.2253C48.2072 28.6772 47.9416 27.9625 47.9565 27.2259C47.9535 26.876 48.0131 26.5283 48.1325 26.1994C48.2427 25.8857 48.4083 25.5943 48.6213 25.339C48.8575 25.07 49.1367 24.8421 49.4475 24.6644C49.7965 24.4687 50.1695 24.3192 50.5571 24.2196V22.7189L51.9308 22.7286Z" fill="#D49A34"/>
</svg>
