<svg width="15" height="14" viewBox="0 0 15 14" fill="none" xmlns="http://www.w3.org/2000/svg">
<path fill-rule="evenodd" clip-rule="evenodd" d="M3.18234 14H0.0316467V5H3.18234V14Z" fill="#0A142F"/>
<path fill-rule="evenodd" clip-rule="evenodd" d="M1.59763 3H1.57973C0.639493 3 0.0316467 2.33303 0.0316467 1.49948C0.0316467 0.648306 0.658005 0 1.61608 0C2.57416 0 3.16417 0.648306 3.18234 1.49948C3.18234 2.33303 2.57416 3 1.59763 3Z" fill="#0A142F"/>
<path fill-rule="evenodd" clip-rule="evenodd" d="M14.7348 13.9998H11.6388V9.29535C11.6388 8.11371 11.1907 7.30738 10.0699 7.30738C9.21455 7.30738 8.70506 7.85096 8.48129 8.37598C8.39943 8.56414 8.37933 8.8263 8.37933 9.08911V14H5.28282C5.28282 14 5.32363 6.03183 5.28282 5.20672H8.37933V6.45221C8.79026 5.85348 9.52624 5 11.1701 5C13.2075 5 14.7349 6.25705 14.7349 8.95797L14.7348 13.9998Z" fill="#0A142F"/>
</svg>
