<svg width="1042" height="155" viewBox="0 0 1042 155" fill="none" xmlns="http://www.w3.org/2000/svg">
<path d="M165.045 1.01907L203.508 0.713355H203.406C224.571 0.611448 241.971 0.407635 242.073 0.203822C242.277 0.101915 242.378 8.25445 242.378 36.6864H165.045V1.01907Z" fill="#45207B"/>
<path d="M471.427 1.01907L509.89 0.713355H509.788C530.953 0.611448 548.353 0.407635 548.455 0.203822C548.658 0.101915 548.76 8.25445 548.76 36.6864H471.427V1.01907Z" fill="#45207B"/>
<path d="M822.58 36.6864V18.8527V1.01907H900.931V36.6864H822.58Z" fill="#45207B"/>
<path d="M164.129 75.4109C164.231 67.2584 164.435 60.3287 164.842 59.9211C165.147 59.4116 182.649 59.2078 242.073 59.6154L242.582 95.2827L164.231 94.7732L164.129 92.4293V75.4109Z" fill="#45207B"/>
<path d="M471.529 94.7732V76.9395V59.1059L548.353 59.6154L548.862 95.2827L471.529 94.7732Z" fill="#45207B"/>
<path d="M822.377 77.6529C822.377 68.1755 822.682 60.1249 823.089 59.7173C823.598 59.4116 841.201 59.2078 900.422 59.6154L901.033 95.2827L822.58 94.7732L822.377 77.6529Z" fill="#45207B"/>
<path d="M164.536 137.574C164.435 128.402 164.536 120.25 164.842 119.536C165.147 118.416 172.88 118.212 242.073 118.721V154.389H164.74L164.536 137.574Z" fill="#45207B"/>
<path d="M471.02 153.369C471.325 152.554 471.529 144.3 471.529 135.026V118.212L548.353 118.721V154.389L509.483 154.592C475.192 154.898 470.613 154.694 471.02 153.369Z" fill="#45207B"/>
<path d="M823.089 154.389L822.885 136.249L822.58 118.212L900.422 118.721V154.389H823.089Z" fill="#45207B"/>
<path d="M242.378 36.6864V18.3432V0H317.676V36.6864H242.378Z" fill="#F3CE00"/>
<path d="M548.658 36.6864V18.3432V0H623.956V36.6864H548.658Z" fill="#F3CE00"/>
<path d="M900.727 36.6864L900.524 18.3432L900.218 0H963.815V36.6864H900.727Z" fill="#F3CE00"/>
<path d="M242.378 95.7922V77.449V59.1058H317.676V95.7922H242.378Z" fill="#F3CE00"/>
<path d="M548.658 94.7732L548.76 76.9395V59.1058L623.447 59.6154L623.956 94.7732H548.658Z" fill="#F3CE00"/>
<path d="M900.829 95.7922V77.449V59.1058H964.425V95.7922H900.829Z" fill="#F3CE00"/>
<path d="M242.48 154.898V136.555V118.212H317.473L317.269 154.389L242.48 154.898Z" fill="#F3CE00"/>
<path d="M548.76 154.898V136.555V118.212H624.058V136.045C624.058 151.026 623.753 153.981 622.531 154.389C621.616 154.694 604.725 154.898 548.76 154.898Z" fill="#F3CE00"/>
<path d="M900.829 154.898V136.555V118.212H963.916V154.898H900.829Z" fill="#F3CE00"/>
<path d="M223.045 0.713237C212.666 0.91705 195.266 0.91705 184.378 0.713237C173.491 0.61133 181.936 0.509424 203.203 0.509424C224.47 0.509424 233.424 0.61133 223.045 0.713237Z" fill="#4195D2"/>
<path d="M394.806 39.6416C394.704 18.5469 395.009 1.01896 395.518 0.713237C396.027 0.30561 430.522 0.101797 472.241 0.203704C513.96 0.407517 530.851 0.61133 471.325 1.01896V36.6863H548.658V59.6153L471.325 59.1057V94.7731L548.149 95.2826L548.76 118.721L471.325 118.212V135.536C471.325 146.44 470.918 152.758 470.307 152.656C469.799 152.452 452.602 135.638 395.009 77.9585L394.806 39.6416Z" fill="#4195D2"/>
<path d="M880.376 0.713237C869.489 0.91705 851.885 0.91705 841.201 0.713237C830.517 0.61133 839.471 0.509424 861.043 0.509424C882.615 0.509424 891.264 0.61133 880.376 0.713237Z" fill="#4195D2"/>
<path d="M164.028 59.6153V48.2017V36.6863H242.378V59.6153H164.028Z" fill="#4195D2"/>
<path d="M822.377 59.7172V48.2017V36.7882H900.727V59.7172H822.377Z" fill="#4195D2"/>
<path d="M769.464 101.907V77.4489V52.9913H774.349C776.994 52.9913 781.471 53.6028 784.219 54.418C787.068 55.2333 790.935 56.5581 792.868 57.3733C794.801 58.1886 798.973 60.8382 802.026 63.0801C805.078 65.424 809.148 69.2964 810.98 71.6403C812.913 73.9841 815.356 77.7547 816.475 79.9966C817.696 82.2385 819.426 86.4167 822.071 94.2635L900.218 95.2826L900.829 118.721L822.377 118.212V115.46C822.377 113.524 821.664 114.747 820.036 119.333C818.815 123.001 815.966 128.708 813.727 131.969C811.489 135.23 807.622 139.714 805.078 141.956C802.535 144.096 797.854 147.255 794.699 148.885C791.443 150.516 785.643 152.554 781.675 153.369C775.875 154.592 765.293 154.898 676.868 154.898V101.907H769.464Z" fill="#4195D2"/>
<path d="M164.028 118.721V106.696V94.7731L241.869 95.2826L242.48 118.721H164.028Z" fill="#4195D2"/>
<path d="M134.519 0.713346C123.631 0.91716 106.028 0.91716 95.3435 0.713346C84.6594 0.61144 93.6137 0.509533 115.186 0.509533C136.757 0.509533 145.407 0.61144 134.519 0.713346Z" fill="#CFB371"/>
<path d="M661.3 2.85339C664.251 2.03813 667.71 1.12097 668.931 0.815253C670.254 0.509533 693.352 0.203813 769.464 0V52.9915H676.868V101.907H673.51C671.78 101.907 667.71 101.499 664.658 100.888C661.605 100.378 656.11 98.3399 652.549 96.5056C648.988 94.7732 643.086 90.4931 639.626 87.1302C635.759 83.4615 631.791 78.3662 629.756 74.3919C627.823 70.7232 625.991 66.0355 625.584 63.9974C625.279 61.8573 624.668 60.1249 624.159 60.1249C623.753 60.1249 623.753 55.4372 624.159 49.6285C624.465 43.9218 625.584 37.1959 626.5 34.6483C627.416 32.1006 629.654 27.5148 631.588 24.4576C633.419 21.4004 637.082 16.9165 639.626 14.5727C642.17 12.1269 646.952 8.86588 650.107 7.23537C653.363 5.70677 658.349 3.66864 661.3 2.85339Z" fill="#CFB371"/>
<path d="M317.371 53.501C317.167 56.8639 317.066 54.3162 317.066 47.8961C317.066 41.476 317.167 38.7245 317.371 41.7817C317.574 44.8389 317.574 50.1381 317.371 53.501Z" fill="#CFB371"/>
<path d="M317.371 112.607C317.167 115.97 317.066 113.422 317.066 107.002C317.066 100.582 317.167 97.8304 317.371 100.888C317.574 103.945 317.574 109.244 317.371 112.607Z" fill="#CFB371"/>
<path d="M963.815 36.6863L1002.79 36.4825L1041.66 36.1768L1041.96 94.2635C1042.06 126.262 1041.96 152.962 1041.66 153.675C1041.25 154.592 1032.7 154.796 964.324 154.388L963.815 36.6863Z" fill="#EB6700"/>
<path d="M3.56139 98.9512C2.34034 95.2826 1.1193 88.9644 0.712279 84.8881L0 77.4489H76.6208L76.8243 116.275C77.0278 154.287 77.0279 155 75.0945 155C73.9752 155 68.684 153.981 63.3928 152.86C57.9998 151.739 50.9788 149.701 47.6209 148.274C44.263 146.949 38.9718 144.3 36.021 142.465C33.0701 140.631 27.7789 136.453 24.3192 132.988C20.8596 129.625 16.4842 124.632 14.5508 121.778C12.6175 119.027 9.76839 114.237 8.34384 111.078C6.81752 108.021 4.68069 102.518 3.56139 98.9512Z" fill="#EB6700"/>
<path d="M676.868 101.907V77.449V52.9915H769.464V101.907H676.868Z" fill="#00234B"/>
<path d="M396.027 154.898V116.989V78.9776L433.065 116.174C453.518 136.657 470.002 153.675 469.697 154.083C469.493 154.592 452.806 154.898 396.027 154.898Z" fill="#00234B"/>
<path d="M963.815 36.6864V18.3432V0H1041.86L1041.66 36.1769L963.815 36.6864Z" fill="#76BD4E"/>
<path d="M76.519 77.449V39.234V1.01904H154.361L153.649 27.7186C153.14 42.495 152.835 59.7173 152.835 77.449H76.519Z" fill="#008296"/>
<path d="M317.676 154.898V77.7548V0.509521L396.027 78.9776L395.518 154.389L317.676 154.898Z" fill="#C71343"/>
<path d="M77.8418 154.49C76.8243 153.981 76.519 145.217 76.519 115.664V77.449H153.343L152.529 85.8053C152.122 90.493 150.596 97.7284 149.171 101.907C147.747 106.085 144.694 112.811 142.354 116.683C140.014 120.555 135.333 126.772 131.975 130.339C128.617 133.905 122.614 138.899 118.747 141.446C114.88 144.096 108.368 147.459 104.501 148.886C100.635 150.414 93.3085 152.452 88.2208 153.369C83.1331 154.287 78.4524 154.796 77.8418 154.49Z" fill="#380C0A"/>
</svg>
