<svg width="998" height="152" viewBox="0 0 998 152" fill="none" xmlns="http://www.w3.org/2000/svg">
<path d="M304 1.33514e-05V152H456L304 1.33514e-05Z" fill="#C71343"/>
<path d="M380 76V152L456 152L380 76Z" fill="#00234B"/>
<path d="M152 35.9998V1.33514e-05H228V35.9998H152Z" fill="#45207B"/>
<path d="M152 152V116H228V152H152Z" fill="#45207B"/>
<path d="M152 94V58.0002H228V94H152Z" fill="#45207B"/>
<path d="M152 116H228L228 94H152L152 116Z" fill="#4195D2"/>
<path d="M228 35.9998H152L152 58.0002H228L228 35.9998Z" fill="#4195D2"/>
<path d="M380 0L380 76L456 152V2.8193e-05L380 0Z" fill="#4195D2"/>
<path d="M456 35.9998V2.8193e-05L532 1.33514e-05V35.9998H456Z" fill="#45207B"/>
<path d="M456 152L456 116H532V152L456 152Z" fill="#45207B"/>
<path d="M456 94V58.0002H532V94H456Z" fill="#45207B"/>
<path d="M456 116H532L532 94H456L456 116Z" fill="#4195D2"/>
<path d="M532 35.9998H456L456 58.0002H532L532 35.9998Z" fill="#4195D2"/>
<path d="M228 35.9998V1.33514e-05H304L304 35.9998H228Z" fill="#F3CE00"/>
<path d="M228 152V116H304V152L228 152Z" fill="#F3CE00"/>
<path d="M228 94V58.0002H304V94H228Z" fill="#F3CE00"/>
<path d="M532 35.9998V1.33514e-05L608 0V35.9998L532 35.9998Z" fill="#F3CE00"/>
<path d="M532 152V116L608 116V152L532 152Z" fill="#F3CE00"/>
<path d="M532 94V58.0002L608 58.0002V94L532 94Z" fill="#F3CE00"/>
<path d="M76 76H152L152 1.33514e-05H76V76Z" fill="#008296"/>
<path d="M76 76V152C117.974 152 152 117.974 152 76H76Z" fill="#380C0A"/>
<path d="M76 76H0C0 117.974 34.0264 152 76 152V76Z" fill="#EB6700"/>
<path d="M770 35.9998V0H846V35.9998H770Z" fill="#45207B"/>
<path d="M770 152V116H846V152H770Z" fill="#45207B"/>
<path d="M770 94V58.0002H846V94H770Z" fill="#45207B"/>
<path d="M770 116H846L846 94H770L770 116Z" fill="#4195D2"/>
<path d="M846 35.9998H770L770 58.0002H846L846 35.9998Z" fill="#4195D2"/>
<path d="M846 35.9998V0H922V35.9998H846Z" fill="#F3CE00"/>
<path d="M846 152V116H922V152H846Z" fill="#F3CE00"/>
<path d="M846 94V58.0002H922V94H846Z" fill="#F3CE00"/>
<path d="M922 40L922 0H998V40H922Z" fill="#76BD4E"/>
<path d="M922 152L922 40H998L998 152H922Z" fill="#EB6700"/>
<path d="M729.5 0H648.5C626.132 0 608 18.1325 608 40.5V57.5C608 79.8675 626.132 98 648.5 98V53H729.5V0Z" fill="#CFB371"/>
<path d="M729.5 152C751.868 152 770 133.868 770 111.5V93.5C770 71.1325 751.868 53 729.5 53V98H648.5V152H729.5Z" fill="#4195D2"/>
<path d="M648.5 53V98H729.5V53H648.5Z" fill="#00234B"/>
</svg>
