<svg width="512" height="512" viewBox="0 0 512 512" fill="none" xmlns="http://www.w3.org/2000/svg">
<path fill-rule="evenodd" clip-rule="evenodd" d="M0 512H512V0H0V512ZM179.228 52.829C185.687 56.01 192.6 63.913 194.49 70.279C196.633 77.493 196.712 128.548 194.585 130.921C192.814 132.896 191.391 140 192.767 140C193.311 140 194.42 138.999 195.232 137.777L196.709 135.553L201.327 140.373C205.859 145.103 208.048 150.495 206.472 153.046C206.045 153.736 206.852 155.105 208.425 156.361C209.899 157.537 211.218 159.266 211.354 160.202C211.491 161.138 212.447 162.836 213.478 163.976C214.915 165.564 215.078 166.322 214.176 167.224C213.529 167.871 213 169.022 213 169.782C213 170.542 211.358 173.167 209.351 175.616C205.804 179.945 205.738 180.176 206.974 183.923C208.422 188.31 207.508 201.081 204.853 213.547C203.904 218.001 204.023 219.051 205.868 222.492L207.957 226.39L204.767 229.053C201.767 231.558 201.635 231.944 202.539 235.572C203.358 238.856 203.995 239.528 206.845 240.107C208.685 240.48 211.765 240.352 213.689 239.82C218.056 238.615 218.765 239.235 216.083 241.917C213.621 244.379 213.438 246.288 215.5 248C217.562 249.712 217.395 251.378 215.25 250.488C214.287 250.089 212.863 249.74 212.083 249.714C210.509 249.661 207 246.492 207 245.122C207 244.64 206.26 243.631 205.356 242.88C203.909 241.68 203.783 241.755 204.308 243.508C204.636 244.604 205.22 246.85 205.606 248.5C205.991 250.15 207.801 253.853 209.627 256.729C212.472 261.209 213.597 262.122 217.474 263.098C219.963 263.725 222 264.614 222 265.073C222 266.547 215.869 267.029 200.5 266.761L185.5 266.5L184.974 197H58V124.167C58 84.108 58.32 51.013 58.712 50.622C59.103 50.23 85.315 50.043 116.962 50.205L174.5 50.5L179.228 52.829ZM86 160H114V87H86V160ZM123.75 87.564C123.338 87.987 123 104.458 123 124.167V160H155.29L154.711 153.089C154.386 149.213 153.25 144.45 152.125 142.244C150.142 138.358 143.836 132 141.965 132C139.992 132 141.1 130.401 144.25 128.703C150.863 125.138 154.8 115.429 153.45 106.013C152.287 97.906 149.014 93.528 141.47 89.991C137.141 87.961 124.986 86.296 123.75 87.564ZM196.235 181.497C194.439 182.278 192.715 183.579 192.405 184.388C191.402 187.001 194.929 192.78 198.23 193.93C202.898 195.558 203.475 195.318 205.4 190.955C207.069 187.172 207.078 186.685 205.545 183.455C203.712 179.591 201.63 179.153 196.235 181.497ZM233.113 277.518C234.281 280.002 237.392 284.145 240.026 286.723L244.815 291.411L240.407 295.29C237.542 297.812 236 299.995 236 301.526C236 305.575 234.21 305.205 233.502 301.009C232.848 297.14 231.486 295.181 230.284 296.383C229.963 296.703 230.214 300.069 230.84 303.863C231.676 308.925 231.685 311.604 230.874 313.931C229.439 318.048 230.351 318.815 234.07 316.618L237.078 314.841L236.41 317.67C235.603 321.086 235.319 321.425 231.5 323.524L228.5 325.174L231.33 324.548C233.921 323.975 234.099 324.115 233.445 326.211C233.052 327.47 231.441 329.978 229.865 331.785C226.561 335.573 226.353 336.186 228.674 335.295C229.923 334.816 230.19 335.061 229.729 336.264C229.389 337.15 228.619 339.701 228.018 341.933C227.417 344.166 225.957 346.894 224.774 347.996C222.951 349.694 222.881 350 224.311 350C226.289 350 226.338 350.374 224.964 355.007C224.394 356.928 223.308 361.425 222.551 365C221.795 368.575 220.234 375.775 219.083 381C216.248 393.869 214.278 407.482 213.512 419.5C213.162 425 212.445 433.1 211.919 437.5C209.909 454.321 209.684 454.834 205.829 451.345C203.44 449.183 203.507 446.789 206 445.232C208.328 443.778 208.56 440.598 206.611 436.862C205.854 435.411 205.435 433.161 205.681 431.862C205.926 430.563 205.177 425.246 204.016 420.047C202.403 412.826 201.922 407.394 201.98 397.047C202.066 381.466 203.799 370.81 209.873 348.5C212.119 340.25 213.967 332.572 213.979 331.437C213.99 330.302 216.02 325.416 218.488 320.578C221.659 314.364 223.437 309.246 224.545 303.141C225.408 298.388 226.814 292.318 227.67 289.652L229.226 284.804L231.67 288.902C233.932 292.696 236 294.225 236 292.104C236 291.611 234.41 287.861 232.468 283.77C230.413 279.444 229.203 275.635 229.575 274.666C230.49 272.281 230.75 272.49 233.113 277.518ZM264.872 283.75C264.118 284.712 262.6 286.156 261.5 286.957C260.4 287.758 258.245 289.653 256.712 291.168C254.357 293.495 253.529 293.771 251.376 292.953C248.898 292.011 248.986 291.9 254.562 288.967C257.716 287.308 261.467 285.076 262.898 284.007C266.147 281.58 266.623 281.518 264.872 283.75ZM272.01 365.48C269.731 370.166 267.648 374 267.381 374C267.114 374 266.396 372.566 265.785 370.814L264.674 367.627L258.765 374.5L259.435 371.618C259.803 370.033 261.093 367.886 262.302 366.846C264.471 364.982 264.45 364.979 260.763 366.658C258.707 367.593 256.73 368.064 256.37 367.703C255.544 366.878 257.863 364.006 259.372 363.983C259.993 363.974 263.872 361.939 267.992 359.461C272.113 356.982 275.635 355.406 275.819 355.957C276.003 356.508 274.289 360.793 272.01 365.48ZM267.604 378.729C266.588 379.746 265.749 378.215 266.583 376.866C267.213 375.846 267.449 375.846 267.787 376.862C268.019 377.557 267.936 378.397 267.604 378.729ZM265.485 403.25C264.725 407.929 263.596 409.774 262.541 408.066C261.954 407.117 264.878 399.099 265.838 399.026C266.024 399.012 265.865 400.913 265.485 403.25ZM207.986 462.25C207.979 464.587 207.703 467.507 207.373 468.739C206.31 472.703 205 470.054 205 463.941C205 459.327 205.335 458 206.5 458C207.6 458 207.996 459.133 207.986 462.25Z" fill="#0975A6"/>
<path fill-rule="evenodd" clip-rule="evenodd" d="M236.5 105.417C228.03 106.192 224.068 107.558 213.881 113.212C204.442 118.452 196.621 126.954 196.535 132.071C196.507 133.77 196.972 134.093 198.912 133.722C200.754 133.369 201.74 133.933 203.087 136.11C204.057 137.678 206.094 140.907 207.613 143.287C209.132 145.667 210.683 149.016 211.059 150.73C211.436 152.444 212.364 154.467 213.122 155.225C213.88 155.983 214.5 157.873 214.5 159.424C214.5 161.01 215.157 162.498 216 162.822C217.521 163.405 218.053 166.574 216.835 167.792C216.469 168.158 216.046 169.616 215.895 171.032C215.744 172.448 214.078 175.489 212.193 177.79C208.969 181.724 208.856 182.11 210.286 184.265C211.617 186.269 211.642 187.646 210.485 195.258C209.757 200.044 209.251 206.707 209.36 210.064C209.504 214.506 209.142 216.512 208.029 217.436C205.931 219.177 206.084 220.048 209.209 224.145L211.918 227.697L208.853 230.436C207.168 231.942 205.498 234.333 205.142 235.749C204.337 238.957 206.731 239.952 212.993 239.013C215.356 238.659 218.495 238.672 219.968 239.041L222.647 239.714L216.155 246.411L218.828 248.888C222.163 251.979 222.226 254.172 219.019 255.633C215.058 257.438 214.422 262.46 218.155 262.46C219.641 262.46 224.423 264.795 227.5 267.024C228.325 267.622 229.945 268.156 231.099 268.212C232.254 268.268 235.38 269.696 238.045 271.387C240.936 273.22 244.225 274.46 246.196 274.46C248.013 274.46 249.5 274.91 249.5 275.46C249.5 276.01 250.57 276.46 251.878 276.46C255.905 276.46 261.511 279.268 260.862 280.96C260.545 281.785 259.936 282.46 259.508 282.46C259.08 282.46 257.921 283.694 256.933 285.203L255.135 287.946L257.568 286.259C258.905 285.332 262.7 282.89 266 280.834C281.567 271.133 294.897 259.026 299.75 250.181C302.361 245.422 301.844 235.007 299.049 236.079C297.396 236.714 294.5 232.204 294.5 228.995C294.5 227.601 294.085 226.46 293.578 226.46C293.07 226.46 292.133 224.879 291.495 222.946C290.572 220.147 290.679 217.143 292.025 208.196C292.954 202.016 294.341 194.967 295.107 192.532C296.762 187.27 296.887 176.071 295.458 160.96C293.533 140.599 290.629 133.007 280.697 122.375C271.088 112.09 261.451 107.218 246.5 105.086C245.125 104.89 240.625 105.039 236.5 105.417ZM199.806 183.104C199.15 183.371 198.838 184.176 199.113 184.893C199.396 185.631 198.72 186.431 197.557 186.735C195.191 187.354 194.984 188.384 196.75 190.757C198.498 193.106 205.5 192.015 205.5 189.394C205.5 184.362 203.135 181.749 199.806 183.104ZM305.029 248.21C304.619 249.851 298.613 256.809 290.14 265.46C278.41 277.437 275.361 281.178 272.619 286.96C270.794 290.81 268.644 295.198 267.842 296.712C267.04 298.226 266.662 299.913 267.001 300.462C267.911 301.934 267.571 301.823 257.544 297.372C250.948 294.445 247.605 293.468 245.765 293.93C242.531 294.741 237.5 300.038 237.5 302.631C237.5 305.035 235.754 308.46 234.528 308.46C234.032 308.46 233.433 307.222 233.196 305.71C232.959 304.198 232.939 305.046 233.152 307.595C233.364 310.144 233.091 313.406 232.544 314.845C231.36 317.957 232.485 318.239 235 315.46C235.995 314.36 237.424 313.46 238.174 313.46C239.942 313.46 239.367 315.809 234.015 330.46C229.412 343.058 228.302 346.997 225.986 358.96C225.134 363.36 223.806 369.21 223.034 371.96C220.256 381.865 218.314 394.473 214.948 424.46C213.065 441.235 210.843 460.135 210.011 466.46C209.179 472.785 208.462 481.672 208.419 486.21C208.375 490.748 207.961 494.46 207.499 494.46C206.439 494.46 205.078 482.183 205.822 479.336C206.128 478.168 205.878 473.482 205.268 468.921C204.29 461.608 204.359 460.324 205.856 458.04C207.481 455.559 207.458 455.322 205.315 452.424C203.093 449.418 203.09 449.376 204.957 445.911C206.607 442.846 206.693 441.809 205.667 437.365C205.025 434.583 204.5 430.623 204.5 428.565C204.5 426.507 203.727 422.379 202.781 419.392C200.082 410.862 200.331 386.057 203.248 372.809C207.205 354.835 208.395 350.067 210.32 344.46C211.359 341.435 212.532 336.71 212.927 333.96C213.322 331.21 215.392 325.135 217.527 320.46C219.662 315.785 222.341 307.91 223.481 302.96C226.012 291.967 228.49 284.159 229.699 283.369C230.698 282.716 228.659 277.46 227.407 277.46C226.982 277.46 226.349 278.36 226 279.46C225.32 281.602 224.889 281.737 219.5 281.499C216.063 281.347 202.747 287.511 191.5 294.461C189.025 295.99 184.975 298.318 182.5 299.633C180.025 300.948 176.2 303.181 174 304.596C171.8 306.01 169.1 307.457 168 307.811C162.939 309.439 160.335 331.355 161.505 362.46C161.805 370.435 161.702 377.388 161.275 377.91C160.849 378.432 160.5 388.461 160.5 400.195C160.5 417.873 160.232 421.94 158.934 423.92C157.282 426.441 156.907 428.982 155.458 447.46C154.961 453.785 154.039 461.146 153.408 463.817C152.716 466.747 152.514 471.706 152.9 476.317C153.392 482.194 153.189 484.622 152.02 486.824C151.184 488.4 150.5 490.667 150.5 491.863C150.5 493.059 149.712 495.595 148.75 497.499C147.715 499.546 147 503.207 147 506.46V512H377L377.564 504.46C378.101 497.311 380.1 481.668 381.128 476.565C381.481 474.815 381.908 474.468 382.718 475.278C383.352 475.912 384.289 483.983 384.912 494.172L386 512H462.5L462.19 502.722C460.462 464.631 457.925 442.147 452.875 420.165C452.016 416.428 450.899 408.553 450.393 402.665C449.887 396.777 448.776 389.71 447.923 386.96C447.07 384.21 445.239 378.135 443.852 373.46C442.466 368.785 440.596 362.485 439.696 359.46C438.796 356.435 437.487 352.835 436.786 351.46C436.086 350.085 435.51 348.139 435.506 347.136C435.503 346.133 434.375 341.961 433 337.865C431.625 333.769 430.5 329.332 430.5 328.004C430.5 326.676 430.059 324.43 429.52 323.012C428.981 321.594 428.098 317.692 427.558 314.342C426.162 305.67 423.516 302.691 413.45 298.46C380.318 284.532 356.985 275.783 346.792 273.465C338.374 271.551 326.177 263.318 313.377 250.91C310.285 247.913 307.296 245.46 306.736 245.46C306.175 245.46 305.407 246.698 305.029 248.21ZM209.5 305.96C209.5 306.785 209.064 307.46 208.531 307.46C207.999 307.46 207.822 306.785 208.138 305.96C208.455 305.135 208.891 304.46 209.107 304.46C209.323 304.46 209.5 305.135 209.5 305.96ZM205.227 321.328C205.068 324.038 204.609 325.046 203.693 324.698C202.928 324.408 202.664 323.529 203.056 322.581C203.425 321.689 203.953 320.172 204.23 319.21C205.056 316.336 205.469 317.212 205.227 321.328ZM285 335.46C284.005 336.56 282.697 337.445 282.095 337.427C281.493 337.408 282.062 336.508 283.361 335.427C286.415 332.883 287.316 332.901 285 335.46ZM284.728 345.809C284.175 346.992 282.54 350.885 281.094 354.46C279.648 358.035 277.047 363.651 275.315 366.941C272.757 371.799 272.105 374.333 271.838 380.441C271.517 387.815 268.015 404.94 266.404 407.01C265.955 407.587 265.295 409.887 264.938 412.122C263.286 422.451 260.875 420.076 261.388 408.624C262.448 384.948 261.872 377.256 259.375 381.718C257.499 385.071 256.352 383.52 256.609 377.975C256.749 374.958 256.556 372.183 256.182 371.808C255.056 370.683 255.412 365.953 256.75 364.261C257.438 363.392 259.718 362.136 261.818 361.47C265.958 360.158 277.26 351.308 278.233 348.618C279.064 346.317 284.918 341.422 285.366 342.652C285.568 343.205 285.28 344.625 284.728 345.809Z" fill="black"/>
</svg>
