<svg width="26" height="26" viewBox="0 0 26 26" fill="none" xmlns="http://www.w3.org/2000/svg">
<path fill-rule="evenodd" clip-rule="evenodd" d="M12.8965 19.4414C10.4353 19.4414 8.3335 19.0584 8.3335 17.5245C8.3335 15.9907 10.422 14.5747 12.8965 14.5747C15.3577 14.5747 17.4596 15.9769 17.4596 17.5108C17.4596 19.044 15.3711 19.4414 12.8965 19.4414Z" stroke="white" stroke-width="1.5" stroke-linecap="round" stroke-linejoin="round"/>
<path fill-rule="evenodd" clip-rule="evenodd" d="M12.8917 12.4492C14.5068 12.4492 15.8159 11.1401 15.8159 9.52495C15.8159 7.90979 14.5068 6.6001 12.8917 6.6001C11.2765 6.6001 9.96681 7.90979 9.96681 9.52495C9.96136 11.1346 11.2614 12.4437 12.8711 12.4492C12.8783 12.4492 12.885 12.4492 12.8917 12.4492Z" stroke="white" stroke-width="1.5" stroke-linecap="round" stroke-linejoin="round"/>
<circle cx="13" cy="13" r="12.25" stroke="white" stroke-width="1.5"/>
</svg>
