<svg width="22" height="19" viewBox="0 0 22 19" fill="none" xmlns="http://www.w3.org/2000/svg">
<path fill-rule="evenodd" clip-rule="evenodd" d="M10.9728 17.3681C7.7338 17.3681 4.9668 16.8781 4.9668 14.9161C4.9668 12.9541 7.7158 11.2461 10.9728 11.2461C14.2118 11.2461 16.9788 12.9381 16.9788 14.8991C16.9788 16.8601 14.2298 17.3681 10.9728 17.3681Z" stroke="#130F26" stroke-width="1.5" stroke-linecap="round" stroke-linejoin="round"/>
<path fill-rule="evenodd" clip-rule="evenodd" d="M10.9726 8.44851C13.0986 8.44851 14.8226 6.72551 14.8226 4.59951C14.8226 2.47351 13.0986 0.749512 10.9726 0.749512C8.84657 0.749512 7.12257 2.47351 7.12257 4.59951C7.11657 6.71751 8.82657 8.44151 10.9456 8.44851H10.9726Z" stroke="#130F26" stroke-width="1.5" stroke-linecap="round" stroke-linejoin="round"/>
<path d="M17.3623 7.39154C18.5993 7.06054 19.5113 5.93254 19.5113 4.58954C19.5113 3.18854 18.5183 2.01854 17.1963 1.74854" stroke="#130F26" stroke-width="1.5" stroke-linecap="round" stroke-linejoin="round"/>
<path d="M17.9434 10.5444C19.6974 10.5444 21.1954 11.7334 21.1954 12.7954C21.1954 13.4204 20.6784 14.1014 19.8944 14.2854" stroke="#130F26" stroke-width="1.5" stroke-linecap="round" stroke-linejoin="round"/>
<path d="M4.58408 7.39154C3.34608 7.06054 2.43408 5.93254 2.43408 4.58954C2.43408 3.18854 3.42808 2.01854 4.74908 1.74854" stroke="#130F26" stroke-width="1.5" stroke-linecap="round" stroke-linejoin="round"/>
<path d="M4.002 10.5444C2.248 10.5444 0.75 11.7334 0.75 12.7954C0.75 13.4204 1.267 14.1014 2.052 14.2854" stroke="#130F26" stroke-width="1.5" stroke-linecap="round" stroke-linejoin="round"/>
</svg>
