<svg width="20" height="20" viewBox="0 0 20 20" fill="none" xmlns="http://www.w3.org/2000/svg">
<path fill-rule="evenodd" clip-rule="evenodd" d="M19.0005 4.6738C19.0005 6.7024 17.3553 8.3476 15.3267 8.3476C13.2981 8.3476 11.6538 6.7024 11.6538 4.6738C11.6538 2.6452 13.2981 1 15.3267 1C17.3553 1 19.0005 2.6452 19.0005 4.6738Z" stroke="white" stroke-width="1.5" stroke-linecap="round" stroke-linejoin="round"/>
<path fill-rule="evenodd" clip-rule="evenodd" d="M8.3467 4.6738C8.3467 6.7024 6.7024 8.3476 4.6729 8.3476C2.6452 8.3476 1 6.7024 1 4.6738C1 2.6452 2.6452 1 4.6729 1C6.7024 1 8.3467 2.6452 8.3467 4.6738Z" stroke="white" stroke-width="1.5" stroke-linecap="round" stroke-linejoin="round"/>
<path fill-rule="evenodd" clip-rule="evenodd" d="M19.0005 15.2622C19.0005 17.2908 17.3553 18.9351 15.3267 18.9351C13.2981 18.9351 11.6538 17.2908 11.6538 15.2622C11.6538 13.2336 13.2981 11.5884 15.3267 11.5884C17.3553 11.5884 19.0005 13.2336 19.0005 15.2622Z" stroke="white" stroke-width="1.5" stroke-linecap="round" stroke-linejoin="round"/>
<path fill-rule="evenodd" clip-rule="evenodd" d="M8.3467 15.2622C8.3467 17.2908 6.7024 18.9351 4.6729 18.9351C2.6452 18.9351 1 17.2908 1 15.2622C1 13.2336 2.6452 11.5884 4.6729 11.5884C6.7024 11.5884 8.3467 13.2336 8.3467 15.2622Z" stroke="white" stroke-width="1.5" stroke-linecap="round" stroke-linejoin="round"/>
</svg>
