<svg width="20" height="22" viewBox="0 0 20 22" fill="none" xmlns="http://www.w3.org/2000/svg">
<path fill-rule="evenodd" clip-rule="evenodd" d="M7.55851 20.4562C3.88651 20.4562 0.749512 19.9012 0.749512 17.6772C0.749512 15.4532 3.86651 13.4492 7.55851 13.4492C11.2305 13.4492 14.3665 15.4342 14.3665 17.6572C14.3665 19.8802 11.2505 20.4562 7.55851 20.4562Z" stroke="#130F26" stroke-width="1.5" stroke-linecap="round" stroke-linejoin="round"/>
<path fill-rule="evenodd" clip-rule="evenodd" d="M7.55837 10.2773C9.96837 10.2773 11.9224 8.32332 11.9224 5.91332C11.9224 3.50332 9.96837 1.54932 7.55837 1.54932C5.14837 1.54932 3.19437 3.50332 3.19437 5.91332C3.18537 8.31532 5.12637 10.2693 7.52737 10.2773H7.55837Z" stroke="#130F26" stroke-width="1.5" stroke-linecap="round" stroke-linejoin="round"/>
<path d="M14.8013 9.07864C16.2043 8.70364 17.2383 7.42464 17.2383 5.90264C17.2393 4.31464 16.1123 2.98864 14.6143 2.68164" stroke="#130F26" stroke-width="1.5" stroke-linecap="round" stroke-linejoin="round"/>
<path d="M15.4609 12.6533C17.4489 12.6533 19.1469 14.0013 19.1469 15.2043C19.1469 15.9133 18.5619 16.6413 17.6719 16.8503" stroke="#130F26" stroke-width="1.5" stroke-linecap="round" stroke-linejoin="round"/>
</svg>
