<svg width="22" height="22" viewBox="0 0 22 22" fill="none" xmlns="http://www.w3.org/2000/svg">
<path fill-rule="evenodd" clip-rule="evenodd" d="M9.58318 10.9999C9.58318 12.1059 8.68697 13.0021 7.58102 13.0021C6.47507 13.0021 5.57886 12.1059 5.57886 10.9999C5.57886 9.894 6.47507 8.99778 7.58102 8.99778H7.58426C8.68913 8.99886 9.58318 9.89508 9.58318 10.9999Z" stroke="black" stroke-width="1.5" stroke-linecap="round" stroke-linejoin="round"/>
<path d="M9.58643 11H16.4167V13.0022" stroke="black" stroke-width="1.5" stroke-linecap="round" stroke-linejoin="round"/>
<path d="M13.3584 13.0022V11" stroke="black" stroke-width="1.5" stroke-linecap="round" stroke-linejoin="round"/>
<path fill-rule="evenodd" clip-rule="evenodd" d="M1 11C1 3.50054 3.50054 1 11 1C18.4995 1 21 3.50054 21 11C21 18.4995 18.4995 21 11 21C3.50054 21 1 18.4995 1 11Z" stroke="black" stroke-width="1.5" stroke-linecap="round" stroke-linejoin="round"/>
</svg>
