<svg width="20" height="22" viewBox="0 0 20 22" fill="none" xmlns="http://www.w3.org/2000/svg">
<path fill-rule="evenodd" clip-rule="evenodd" d="M9.94725 8.36842C11.4008 8.36842 12.5788 9.54644 12.5788 11C12.5788 12.4536 11.4008 13.6316 9.94725 13.6316C8.49369 13.6316 7.31567 12.4536 7.31567 11C7.31567 9.54644 8.49369 8.36842 9.94725 8.36842Z" stroke="#0E8AC3" stroke-width="1.5" stroke-linecap="round" stroke-linejoin="round"/>
<path fill-rule="evenodd" clip-rule="evenodd" d="M18.5453 6.00026V6.00026C17.8257 4.74526 16.2329 4.31583 14.9879 5.04055C13.905 5.66961 12.5516 4.88251 12.5516 3.62334C12.5516 2.17494 11.3851 1 9.94712 1V1C8.50911 1 7.34259 2.17494 7.34259 3.62334C7.34259 4.88251 5.98923 5.66961 4.90736 5.04055C3.66136 4.31583 2.0685 4.74526 1.34898 6.00026C0.630485 7.25526 1.05683 8.85963 2.30283 9.58331C3.3847 10.2134 3.3847 11.7866 2.30283 12.4167C1.05683 13.1414 0.630485 14.7458 1.34898 15.9997C2.0685 17.2547 3.66136 17.6842 4.90633 16.9605H4.90736C5.98923 16.3304 7.34259 17.1175 7.34259 18.3767V18.3767C7.34259 19.8251 8.50911 21 9.94712 21V21C11.3851 21 12.5516 19.8251 12.5516 18.3767V18.3767C12.5516 17.1175 13.905 16.3304 14.9879 16.9605C16.2329 17.6842 17.8257 17.2547 18.5453 15.9997C19.2648 14.7458 18.8374 13.1414 17.5924 12.4167H17.5914C16.5095 11.7866 16.5095 10.2134 17.5924 9.58331C18.8374 8.85963 19.2648 7.25526 18.5453 6.00026Z" stroke="#0E8AC3" stroke-width="1.5" stroke-linecap="round" stroke-linejoin="round"/>
</svg>
