<svg width="22" height="22" viewBox="0 0 22 22" fill="none" xmlns="http://www.w3.org/2000/svg">
<path fill-rule="evenodd" clip-rule="evenodd" d="M8.20274 21C4.3184 21 1 20.4129 1 18.0603C1 15.7077 4.29724 13.5878 8.20274 13.5878C12.0871 13.5878 15.4044 15.6876 15.4044 18.0391C15.4044 20.3907 12.1082 21 8.20274 21Z" stroke="black" stroke-width="1.5" stroke-linecap="round" stroke-linejoin="round"/>
<path fill-rule="evenodd" clip-rule="evenodd" d="M8.20281 10.2327C10.7522 10.2327 12.8192 8.16571 12.8192 5.61635C12.8192 3.06699 10.7522 1 8.20281 1C5.65345 1 3.58646 3.06699 3.58646 5.61635C3.57694 8.15725 5.63018 10.2242 8.17002 10.2327H8.20281Z" stroke="black" stroke-width="1.5" stroke-linecap="round" stroke-linejoin="round"/>
<path d="M15.8643 8.9647C17.3484 8.56801 18.4422 7.21505 18.4422 5.60504C18.4433 3.92521 17.2511 2.52254 15.6665 2.19778" stroke="black" stroke-width="1.5" stroke-linecap="round" stroke-linejoin="round"/>
<path d="M16.562 12.7461C18.665 12.7461 20.4612 14.172 20.4612 15.4446C20.4612 16.1946 19.8423 16.9647 18.9009 17.1858" stroke="black" stroke-width="1.5" stroke-linecap="round" stroke-linejoin="round"/>
</svg>
