<svg width="27" height="22" viewBox="0 0 27 22" fill="none" xmlns="http://www.w3.org/2000/svg">
<path fill-rule="evenodd" clip-rule="evenodd" d="M13.3028 21C9.40473 21 6.07471 20.4103 6.07471 18.0491C6.07471 15.6878 9.38307 13.6323 13.3028 13.6323C17.2009 13.6323 20.5309 15.6686 20.5309 18.0286C20.5309 20.3886 17.2225 21 13.3028 21Z" stroke="black" stroke-width="1.5" stroke-linecap="round" stroke-linejoin="round"/>
<path fill-rule="evenodd" clip-rule="evenodd" d="M13.3028 10.2656C15.8614 10.2656 17.9362 8.19198 17.9362 5.63339C17.9362 3.0748 15.8614 1 13.3028 1C10.7442 1 8.66945 3.0748 8.66945 5.63339C8.66223 8.18236 10.7202 10.2572 13.2703 10.2656H13.3028Z" stroke="black" stroke-width="1.5" stroke-linecap="round" stroke-linejoin="round"/>
<path d="M20.9927 8.99338C22.4814 8.59502 23.579 7.2375 23.579 5.62123C23.579 3.93516 22.384 2.52709 20.793 2.20215" stroke="black" stroke-width="1.5" stroke-linecap="round" stroke-linejoin="round"/>
<path d="M21.6919 12.7877C23.8028 12.7877 25.6056 14.2186 25.6056 15.4967C25.6056 16.2489 24.9834 17.0685 24.0399 17.2899" stroke="black" stroke-width="1.5" stroke-linecap="round" stroke-linejoin="round"/>
<path d="M5.61409 8.99338C4.12418 8.59502 3.02661 7.2375 3.02661 5.62123C3.02661 3.93516 4.22287 2.52709 5.81266 2.20215" stroke="black" stroke-width="1.5" stroke-linecap="round" stroke-linejoin="round"/>
<path d="M4.91371 12.7877C2.80281 12.7877 1 14.2186 1 15.4967C1 16.2489 1.6222 17.0685 2.56693 17.2899" stroke="black" stroke-width="1.5" stroke-linecap="round" stroke-linejoin="round"/>
</svg>
