<svg width="24" height="24" viewBox="0 0 24 24" fill="none" xmlns="http://www.w3.org/2000/svg">
<path fill-rule="evenodd" clip-rule="evenodd" d="M21.4399 13.9939C18.7789 13.9939 18.7789 9.87952 21.4399 9.87952C21.4399 5.11236 21.4399 3.41089 12.0449 3.41089C2.6499 3.41089 2.6499 5.11236 2.6499 9.87952C5.3109 9.87952 5.3109 13.9939 2.6499 13.9939C2.6499 18.762 2.6499 20.4635 12.0449 20.4635C21.4399 20.4635 21.4399 18.762 21.4399 13.9939Z" stroke="black" stroke-width="1.5" stroke-linecap="round" stroke-linejoin="round"/>
<path fill-rule="evenodd" clip-rule="evenodd" d="M12.0451 9.17108C11.3621 9.17108 11.2971 10.2606 10.8911 10.6461C10.4841 11.0308 9.22112 10.5912 9.04512 11.2742C8.87012 11.9582 10.0071 12.1903 10.1481 12.7768C10.2881 13.3632 9.59412 14.1874 10.1871 14.5986C10.7811 15.0078 11.4201 14.0803 12.0451 14.0803C12.6701 14.0803 13.3091 15.0078 13.9031 14.5986C14.4971 14.1874 13.8021 13.3632 13.9421 12.7768C14.0831 12.1903 15.2201 11.9582 15.0451 11.2742C14.8691 10.5912 13.6061 11.0308 13.1991 10.6461C12.7931 10.2606 12.7281 9.17108 12.0451 9.17108Z" stroke="black" stroke-width="1.5" stroke-linecap="round" stroke-linejoin="round"/>
</svg>
