<svg width="26" height="28" viewBox="0 0 26 28" fill="none" xmlns="http://www.w3.org/2000/svg">
<path d="M24.4418 13.1274L3.32747 1.3034C3.14984 1.20392 2.94608 1.16104 2.74342 1.18047C2.54077 1.1999 2.34887 1.28072 2.19338 1.41214C2.03788 1.54355 1.92621 1.71929 1.87327 1.91587C1.82033 2.11246 1.82865 2.32051 1.89713 2.51224L5.87976 13.6636C5.95744 13.8811 5.95744 14.1188 5.87976 14.3363L1.89713 25.4876C1.82865 25.6794 1.82033 25.8874 1.87327 26.084C1.92621 26.2806 2.03788 26.4563 2.19338 26.5878C2.34887 26.7192 2.54077 26.8 2.74342 26.8194C2.94608 26.8389 3.14984 26.796 3.32747 26.6965L24.4418 14.8725C24.5969 14.7856 24.7261 14.659 24.816 14.5056C24.9058 14.3523 24.9532 14.1777 24.9532 13.9999C24.9532 13.8222 24.9058 13.6476 24.816 13.4943C24.7261 13.3409 24.5969 13.2143 24.4418 13.1274V13.1274Z" stroke="#9B9AD5" stroke-width="2" stroke-linecap="round" stroke-linejoin="round"/>
</svg>
