<svg width="22" height="22" viewBox="0 0 22 22" fill="none" xmlns="http://www.w3.org/2000/svg">
<path fill-rule="evenodd" clip-rule="evenodd" d="M1 11C1 18.4995 3.50054 21 11 21C18.4995 21 21 18.4995 21 11C21 3.50054 18.4995 1 11 1C3.50054 1 1 3.50054 1 11Z" stroke="black" stroke-width="1.5" stroke-linecap="round" stroke-linejoin="round"/>
<path fill-rule="evenodd" clip-rule="evenodd" d="M9.48457 7.52319C9.48457 8.57508 8.63268 9.42698 7.58079 9.42698C6.52997 9.42698 5.677 8.57508 5.677 7.52319C5.677 6.4713 6.52997 5.61941 7.58079 5.61941C8.63268 5.61941 9.48457 6.4713 9.48457 7.52319Z" stroke="black" stroke-width="1.5" stroke-linecap="round" stroke-linejoin="round"/>
<path d="M20.8593 13.8829C19.9069 12.9034 18.5598 10.924 16.0853 10.924C13.6107 10.924 13.5566 15.2894 11.0312 15.2894C8.50471 15.2894 7.48741 13.8072 5.84093 14.5813C4.19552 15.3543 2.85498 18.431 2.85498 18.431" stroke="black" stroke-width="1.5" stroke-linecap="round" stroke-linejoin="round"/>
</svg>
